<?xml version="1.0" encoding="us-ascii" standalone="no"?><svg xmlns="http://www.w3.org/2000/svg" xmlns:xlink="http://www.w3.org/1999/xlink" contentStyleType="text/css" height="506px" preserveAspectRatio="none" style="width:376px;height:506px;background:#FFFFFF;" version="1.1" viewBox="0 0 376 506" width="376px" zoomAndPan="magnify"><defs/><g><!--class IA1--><g id="elem_IA1"><rect codeLine="1" fill="#F1F1F1" height="276.1563" id="IA1" rx="2.5" ry="2.5" style="stroke:#181818;stroke-width:0.5;" width="338" x="14.5" y="115"/><ellipse cx="167.75" cy="131" fill="#ADD1B2" rx="11" ry="11" style="stroke:#181818;stroke-width:1.0;"/><path d="M170.0938,126.6719 C169.1563,126.2344 168.5625,126.0938 167.6875,126.0938 C165.0625,126.0938 163.0625,128.1719 163.0625,130.8906 L163.0625,132.0156 C163.0625,134.5938 165.1719,136.4844 168.0625,136.4844 C169.2813,136.4844 170.4375,136.1875 171.1875,135.6406 C171.7656,135.2344 172.0938,134.7813 172.0938,134.3906 C172.0938,133.9375 171.7031,133.5469 171.2344,133.5469 C171.0156,133.5469 170.8125,133.625 170.625,133.8125 C170.1719,134.2969 170.1719,134.2969 169.9844,134.3906 C169.5625,134.6563 168.875,134.7813 168.1094,134.7813 C166.0625,134.7813 164.7656,133.6875 164.7656,131.9844 L164.7656,130.8906 C164.7656,129.1094 166.0156,127.7969 167.75,127.7969 C168.3281,127.7969 168.9375,127.9531 169.4063,128.2031 C169.8906,128.4844 170.0625,128.7031 170.1563,129.1094 C170.2188,129.5156 170.25,129.6406 170.3906,129.7656 C170.5313,129.9063 170.7656,130.0156 170.9844,130.0156 C171.25,130.0156 171.5156,129.875 171.6875,129.6563 C171.7969,129.5 171.8281,129.3125 171.8281,128.8906 L171.8281,127.4688 C171.8281,127.0313 171.8125,126.9063 171.7188,126.75 C171.5625,126.4844 171.2813,126.3438 170.9844,126.3438 C170.6875,126.3438 170.4844,126.4375 170.2656,126.75 L170.0938,126.6719 Z " fill="#000000"/><text fill="#000000" font-family="sans-serif" font-size="14" lengthAdjust="spacing" textLength="23" x="188.25" y="135.8467">IA1</text><line style="stroke:#181818;stroke-width:0.5;" x1="15.5" x2="351.5" y1="147" y2="147"/><rect fill="none" height="6" style="stroke:#C82930;stroke-width:1.0;" width="6" x="22.5" y="157.6484"/><text fill="#000000" font-family="sans-serif" font-size="14" lengthAdjust="spacing" textLength="206" x="34.5" y="163.9951">jetons_cible : StockGemmes</text><line style="stroke:#181818;stroke-width:0.5;" x1="15.5" x2="351.5" y1="171.2969" y2="171.2969"/><ellipse cx="25.5" cy="184.9453" fill="#84BE84" rx="3" ry="3" style="stroke:#038048;stroke-width:1.0;"/><text fill="#000000" font-family="sans-serif" font-size="14" lengthAdjust="spacing" textLength="304" x="34.5" y="188.292">deroulement_tour(bool test = false) : bool</text><text fill="#000000" font-family="sans-serif" font-size="14" lengthAdjust="spacing" textLength="4" x="34.5" y="204.5889">&#160;</text><ellipse cx="25.5" cy="217.5391" fill="#84BE84" rx="3" ry="3" style="stroke:#038048;stroke-width:1.0;"/><text fill="#000000" font-family="sans-serif" font-size="14" lengthAdjust="spacing" textLength="189" x="34.5" y="220.8857">getPartie() const : Partie&amp;</text><ellipse cx="25.5" cy="233.8359" fill="#84BE84" rx="3" ry="3" style="stroke:#038048;stroke-width:1.0;"/><text fill="#000000" font-family="sans-serif" font-size="14" lengthAdjust="spacing" textLength="256" x="34.5" y="237.1826">getNumJoueur() const : unsigned int</text><text fill="#000000" font-family="sans-serif" font-size="14" lengthAdjust="spacing" textLength="4" x="34.5" y="253.4795">&#160;</text><ellipse cx="25.5" cy="266.4297" fill="#84BE84" rx="3" ry="3" style="stroke:#038048;stroke-width:1.0;"/><text fill="#000000" font-family="sans-serif" font-size="14" lengthAdjust="spacing" textLength="111" x="34.5" y="269.7764">~IA1() {virtual}</text><text fill="#000000" font-family="sans-serif" font-size="14" lengthAdjust="spacing" textLength="4" x="34.5" y="286.0732">&#160;</text><polygon fill="#FFFF44" points="25.5,294.0234,29.5,298.0234,25.5,302.0234,21.5,298.0234" style="stroke:#B38D22;stroke-width:1.0;"/><text fill="#000000" font-family="sans-serif" font-size="14" lengthAdjust="spacing" textLength="181" x="34.5" y="302.3701">prendre_3_jetons() : bool</text><polygon fill="#FFFF44" points="25.5,310.3203,29.5,314.3203,25.5,318.3203,21.5,314.3203" style="stroke:#B38D22;stroke-width:1.0;"/><text fill="#000000" font-family="sans-serif" font-size="14" lengthAdjust="spacing" textLength="180" x="34.5" y="318.667">prendre_2_jetons() : bool</text><polygon fill="#FFFF44" points="25.5,326.6172,29.5,330.6172,25.5,334.6172,21.5,330.6172" style="stroke:#B38D22;stroke-width:1.0;"/><text fill="#000000" font-family="sans-serif" font-size="14" lengthAdjust="spacing" textLength="181" x="34.5" y="334.9639">prendre_1_jetons() : bool</text><polygon fill="#FFFF44" points="25.5,342.9141,29.5,346.9141,25.5,350.9141,21.5,346.9141" style="stroke:#B38D22;stroke-width:1.0;"/><text fill="#000000" font-family="sans-serif" font-size="14" lengthAdjust="spacing" textLength="298" x="34.5" y="351.2607">valeur(CarteJoaillerie&amp; carte) const : float</text><polygon fill="#FFFF44" points="25.5,359.2109,29.5,363.2109,25.5,367.2109,21.5,363.2109" style="stroke:#B38D22;stroke-width:1.0;"/><text fill="#000000" font-family="sans-serif" font-size="14" lengthAdjust="spacing" textLength="312" x="34.5" y="367.5576">gestion_effets(CarteJoaillerie&amp; carte) : void</text><polygon fill="#FFFF44" points="25.5,375.5078,29.5,379.5078,25.5,383.5078,21.5,379.5078" style="stroke:#B38D22;stroke-width:1.0;"/><text fill="#000000" font-family="sans-serif" font-size="14" lengthAdjust="spacing" textLength="299" x="34.5" y="383.8545">gestion_effets(CarteRoyale&amp; carte) : void</text></g><!--class Partie--><g id="elem_Partie"><rect fill="#F1F1F1" height="48" id="Partie" rx="2.5" ry="2.5" style="stroke:#181818;stroke-width:0.5;" width="75" x="146" y="451"/><ellipse cx="161" cy="467" fill="#ADD1B2" rx="11" ry="11" style="stroke:#181818;stroke-width:1.0;"/><path d="M163.3438,462.6719 C162.4063,462.2344 161.8125,462.0938 160.9375,462.0938 C158.3125,462.0938 156.3125,464.1719 156.3125,466.8906 L156.3125,468.0156 C156.3125,470.5938 158.4219,472.4844 161.3125,472.4844 C162.5313,472.4844 163.6875,472.1875 164.4375,471.6406 C165.0156,471.2344 165.3438,470.7813 165.3438,470.3906 C165.3438,469.9375 164.9531,469.5469 164.4844,469.5469 C164.2656,469.5469 164.0625,469.625 163.875,469.8125 C163.4219,470.2969 163.4219,470.2969 163.2344,470.3906 C162.8125,470.6563 162.125,470.7813 161.3594,470.7813 C159.3125,470.7813 158.0156,469.6875 158.0156,467.9844 L158.0156,466.8906 C158.0156,465.1094 159.2656,463.7969 161,463.7969 C161.5781,463.7969 162.1875,463.9531 162.6563,464.2031 C163.1406,464.4844 163.3125,464.7031 163.4063,465.1094 C163.4688,465.5156 163.5,465.6406 163.6406,465.7656 C163.7813,465.9063 164.0156,466.0156 164.2344,466.0156 C164.5,466.0156 164.7656,465.875 164.9375,465.6563 C165.0469,465.5 165.0781,465.3125 165.0781,464.8906 L165.0781,463.4688 C165.0781,463.0313 165.0625,462.9063 164.9688,462.75 C164.8125,462.4844 164.5313,462.3438 164.2344,462.3438 C163.9375,462.3438 163.7344,462.4375 163.5156,462.75 L163.3438,462.6719 Z " fill="#000000"/><text fill="#000000" font-family="sans-serif" font-size="14" lengthAdjust="spacing" textLength="43" x="175" y="471.8467">Partie</text><line style="stroke:#181818;stroke-width:0.5;" x1="147" x2="220" y1="483" y2="483"/><line style="stroke:#181818;stroke-width:0.5;" x1="147" x2="220" y1="491" y2="491"/></g><!--class InterfaceConsole--><g id="elem_InterfaceConsole"><rect fill="#F1F1F1" height="48" id="InterfaceConsole" rx="2.5" ry="2.5" style="stroke:#181818;stroke-width:0.5;" width="155" x="7" y="7"/><ellipse cx="22" cy="23" fill="#ADD1B2" rx="11" ry="11" style="stroke:#181818;stroke-width:1.0;"/><path d="M24.3438,18.6719 C23.4063,18.2344 22.8125,18.0938 21.9375,18.0938 C19.3125,18.0938 17.3125,20.1719 17.3125,22.8906 L17.3125,24.0156 C17.3125,26.5938 19.4219,28.4844 22.3125,28.4844 C23.5313,28.4844 24.6875,28.1875 25.4375,27.6406 C26.0156,27.2344 26.3438,26.7813 26.3438,26.3906 C26.3438,25.9375 25.9531,25.5469 25.4844,25.5469 C25.2656,25.5469 25.0625,25.625 24.875,25.8125 C24.4219,26.2969 24.4219,26.2969 24.2344,26.3906 C23.8125,26.6563 23.125,26.7813 22.3594,26.7813 C20.3125,26.7813 19.0156,25.6875 19.0156,23.9844 L19.0156,22.8906 C19.0156,21.1094 20.2656,19.7969 22,19.7969 C22.5781,19.7969 23.1875,19.9531 23.6563,20.2031 C24.1406,20.4844 24.3125,20.7031 24.4063,21.1094 C24.4688,21.5156 24.5,21.6406 24.6406,21.7656 C24.7813,21.9063 25.0156,22.0156 25.2344,22.0156 C25.5,22.0156 25.7656,21.875 25.9375,21.6563 C26.0469,21.5 26.0781,21.3125 26.0781,20.8906 L26.0781,19.4688 C26.0781,19.0313 26.0625,18.9063 25.9688,18.75 C25.8125,18.4844 25.5313,18.3438 25.2344,18.3438 C24.9375,18.3438 24.7344,18.4375 24.5156,18.75 L24.3438,18.6719 Z " fill="#000000"/><text fill="#000000" font-family="sans-serif" font-size="14" lengthAdjust="spacing" textLength="123" x="36" y="27.8467">InterfaceConsole</text><line style="stroke:#181818;stroke-width:0.5;" x1="8" x2="161" y1="39" y2="39"/><line style="stroke:#181818;stroke-width:0.5;" x1="8" x2="161" y1="47" y2="47"/></g><!--class InterfaceGraphique--><g id="elem_InterfaceGraphique"><rect fill="#F1F1F1" height="48" id="InterfaceGraphique" rx="2.5" ry="2.5" style="stroke:#181818;stroke-width:0.5;" width="172" x="197.5" y="7"/><ellipse cx="212.5" cy="23" fill="#ADD1B2" rx="11" ry="11" style="stroke:#181818;stroke-width:1.0;"/><path d="M214.8438,18.6719 C213.9063,18.2344 213.3125,18.0938 212.4375,18.0938 C209.8125,18.0938 207.8125,20.1719 207.8125,22.8906 L207.8125,24.0156 C207.8125,26.5938 209.9219,28.4844 212.8125,28.4844 C214.0313,28.4844 215.1875,28.1875 215.9375,27.6406 C216.5156,27.2344 216.8438,26.7813 216.8438,26.3906 C216.8438,25.9375 216.4531,25.5469 215.9844,25.5469 C215.7656,25.5469 215.5625,25.625 215.375,25.8125 C214.9219,26.2969 214.9219,26.2969 214.7344,26.3906 C214.3125,26.6563 213.625,26.7813 212.8594,26.7813 C210.8125,26.7813 209.5156,25.6875 209.5156,23.9844 L209.5156,22.8906 C209.5156,21.1094 210.7656,19.7969 212.5,19.7969 C213.0781,19.7969 213.6875,19.9531 214.1563,20.2031 C214.6406,20.4844 214.8125,20.7031 214.9063,21.1094 C214.9688,21.5156 215,21.6406 215.1406,21.7656 C215.2813,21.9063 215.5156,22.0156 215.7344,22.0156 C216,22.0156 216.2656,21.875 216.4375,21.6563 C216.5469,21.5 216.5781,21.3125 216.5781,20.8906 L216.5781,19.4688 C216.5781,19.0313 216.5625,18.9063 216.4688,18.75 C216.3125,18.4844 216.0313,18.3438 215.7344,18.3438 C215.4375,18.3438 215.2344,18.4375 215.0156,18.75 L214.8438,18.6719 Z " fill="#000000"/><text fill="#000000" font-family="sans-serif" font-size="14" lengthAdjust="spacing" textLength="140" x="226.5" y="27.8467">InterfaceGraphique</text><line style="stroke:#181818;stroke-width:0.5;" x1="198.5" x2="368.5" y1="39" y2="39"/><line style="stroke:#181818;stroke-width:0.5;" x1="198.5" x2="368.5" y1="47" y2="47"/></g><!--reverse link IA1 to Partie--><g id="link_IA1_Partie"><path codeLine="20" d="M183.5,403.141 C183.5,426.1403 183.5,435.4513 183.5,450.7001 " fill="none" id="IA1-backto-Partie" style="stroke:#181818;stroke-width:1.0;"/><polygon fill="#181818" points="183.5,391.141,179.5,397.141,183.5,403.141,187.5,397.141,183.5,391.141" style="stroke:#181818;stroke-width:1.0;"/></g><!--reverse link InterfaceConsole to IA1--><g id="link_InterfaceConsole_IA1"><path codeLine="21" d="M99.8321,66.071 C106.7079,81.35 111.422,91.826 121.825,114.945 " fill="none" id="InterfaceConsole-backto-IA1" style="stroke:#181818;stroke-width:1.0;"/><polygon fill="#181818" points="94.9076,55.128,93.7222,62.241,99.8321,66.071,101.0175,58.958,94.9076,55.128" style="stroke:#181818;stroke-width:1.0;"/></g><!--reverse link InterfaceGraphique to IA1--><g id="link_InterfaceGraphique_IA1"><path codeLine="22" d="M268.0214,66.0524 C261.0764,81.3314 256.306,91.826 245.798,114.945 " fill="none" id="InterfaceGraphique-backto-IA1" style="stroke:#181818;stroke-width:1.0;"/><polygon fill="#181818" points="272.987,55.128,266.8627,58.935,268.0214,66.0524,274.1456,62.2454,272.987,55.128" style="stroke:#181818;stroke-width:1.0;"/></g><!--SRC=[XL71QW8n4BtlLmmKP6tPW-rDwA5u43sKqdv0YDdPRTfiHfF9GX7xxPrLCRPWpI67UU_Dl7bZd8uH5a-JObk0l0e-aCb7PUpA8KpXZSbyph7hCEu9- -yEQWoK77ReMJ6bKAw87316XaTej8iu5l5GF5Uro2ywiCLo34Qci70EXL5cFATkIGcbPoOb7sthiGRh-RpXjpWNshQtWPDskupTm3gWhmEg1tLOgVpbAEFtL_391RpNRZ0v4_-u96sTmo2BW1aAsNhZIFDHqae-bhp2fa6E5wLJwCdM_sXUwKk6_-NlYaBYWDkgEePQB3nZQBJ1cPWXkUU03SS-0VEWr-zsaqxG3m00]--></g></svg>