<?xml version="1.0" encoding="us-ascii" standalone="no"?><svg xmlns="http://www.w3.org/2000/svg" xmlns:xlink="http://www.w3.org/1999/xlink" contentStyleType="text/css" height="1316px" preserveAspectRatio="none" style="width:1357px;height:1316px;background:#FFFFFF;" version="1.1" viewBox="0 0 1357 1316" width="1357px" zoomAndPan="magnify"><defs/><g><!--class Plateau--><g id="elem_Plateau"><rect codeLine="1" fill="#F1F1F1" height="88.8594" id="Plateau" rx="2.5" ry="2.5" style="stroke:#181818;stroke-width:0.5;" width="408" x="24.5" y="51.5"/><ellipse cx="191.75" cy="71.6328" fill="#ADD1B2" rx="11" ry="11" style="stroke:#181818;stroke-width:1.0;"/><path d="M194.0938,67.3047 C193.1563,66.8672 192.5625,66.7266 191.6875,66.7266 C189.0625,66.7266 187.0625,68.8047 187.0625,71.5234 L187.0625,72.6484 C187.0625,75.2266 189.1719,77.1172 192.0625,77.1172 C193.2813,77.1172 194.4375,76.8203 195.1875,76.2734 C195.7656,75.8672 196.0938,75.4141 196.0938,75.0234 C196.0938,74.5703 195.7031,74.1797 195.2344,74.1797 C195.0156,74.1797 194.8125,74.2578 194.625,74.4453 C194.1719,74.9297 194.1719,74.9297 193.9844,75.0234 C193.5625,75.2891 192.875,75.4141 192.1094,75.4141 C190.0625,75.4141 188.7656,74.3203 188.7656,72.6172 L188.7656,71.5234 C188.7656,69.7422 190.0156,68.4297 191.75,68.4297 C192.3281,68.4297 192.9375,68.5859 193.4063,68.8359 C193.8906,69.1172 194.0625,69.3359 194.1563,69.7422 C194.2188,70.1484 194.25,70.2734 194.3906,70.3984 C194.5313,70.5391 194.7656,70.6484 194.9844,70.6484 C195.25,70.6484 195.5156,70.5078 195.6875,70.2891 C195.7969,70.1328 195.8281,69.9453 195.8281,69.5234 L195.8281,68.1016 C195.8281,67.6641 195.8125,67.5391 195.7188,67.3828 C195.5625,67.1172 195.2813,66.9766 194.9844,66.9766 C194.6875,66.9766 194.4844,67.0703 194.2656,67.3828 L194.0938,67.3047 Z " fill="#000000"/><text fill="#000000" font-family="sans-serif" font-size="12" font-style="italic" lengthAdjust="spacing" textLength="69" x="210.25" y="67.6387">&#171;singleton&#187;</text><text fill="#000000" font-family="sans-serif" font-size="14" lengthAdjust="spacing" textLength="53" x="218.25" y="83.4639">Plateau</text><line style="stroke:#181818;stroke-width:0.5;" x1="25.5" x2="431.5" y1="91.7656" y2="91.7656"/><rect fill="none" height="6" style="stroke:#C82930;stroke-width:1.0;" width="6" x="32.5" y="102.4141"/><text fill="#000000" font-family="sans-serif" font-size="14" lengthAdjust="spacing" textLength="257" x="44.5" y="108.7607">matrice : array&lt;array&lt;Jeton, 5&gt;, 5&gt;</text><rect fill="none" height="6" style="stroke:#C82930;stroke-width:1.0;" width="6" x="32.5" y="118.7109"/><text fill="#000000" font-family="sans-serif" font-size="14" lengthAdjust="spacing" textLength="382" x="44.5" y="125.0576">ordreCases : const array&lt;array&lt;unsigned int, 2&gt;, 25&gt;</text><line style="stroke:#181818;stroke-width:0.5;" x1="25.5" x2="431.5" y1="132.3594" y2="132.3594"/></g><!--class StockGemmes--><g id="elem_StockGemmes"><rect codeLine="7" fill="#F1F1F1" height="630.6875" id="StockGemmes" rx="2.5" ry="2.5" style="stroke:#181818;stroke-width:0.5;" width="993" x="9" y="245"/><ellipse cx="448.25" cy="261" fill="#ADD1B2" rx="11" ry="11" style="stroke:#181818;stroke-width:1.0;"/><path d="M450.5938,256.6719 C449.6563,256.2344 449.0625,256.0938 448.1875,256.0938 C445.5625,256.0938 443.5625,258.1719 443.5625,260.8906 L443.5625,262.0156 C443.5625,264.5938 445.6719,266.4844 448.5625,266.4844 C449.7813,266.4844 450.9375,266.1875 451.6875,265.6406 C452.2656,265.2344 452.5938,264.7813 452.5938,264.3906 C452.5938,263.9375 452.2031,263.5469 451.7344,263.5469 C451.5156,263.5469 451.3125,263.625 451.125,263.8125 C450.6719,264.2969 450.6719,264.2969 450.4844,264.3906 C450.0625,264.6563 449.375,264.7813 448.6094,264.7813 C446.5625,264.7813 445.2656,263.6875 445.2656,261.9844 L445.2656,260.8906 C445.2656,259.1094 446.5156,257.7969 448.25,257.7969 C448.8281,257.7969 449.4375,257.9531 449.9063,258.2031 C450.3906,258.4844 450.5625,258.7031 450.6563,259.1094 C450.7188,259.5156 450.75,259.6406 450.8906,259.7656 C451.0313,259.9063 451.2656,260.0156 451.4844,260.0156 C451.75,260.0156 452.0156,259.875 452.1875,259.6563 C452.2969,259.5 452.3281,259.3125 452.3281,258.8906 L452.3281,257.4688 C452.3281,257.0313 452.3125,256.9063 452.2188,256.75 C452.0625,256.4844 451.7813,256.3438 451.4844,256.3438 C451.1875,256.3438 450.9844,256.4375 450.7656,256.75 L450.5938,256.6719 Z " fill="#000000"/><text fill="#000000" font-family="sans-serif" font-size="14" lengthAdjust="spacing" textLength="106" x="468.75" y="265.8467">StockGemmes</text><line style="stroke:#181818;stroke-width:0.5;" x1="10" x2="1001" y1="277" y2="277"/><polygon fill="none" points="20,285.6484,24,289.6484,20,293.6484,16,289.6484" style="stroke:#B38D22;stroke-width:1.0;"/><text fill="#000000" font-family="sans-serif" font-size="14" lengthAdjust="spacing" textLength="182" x="29" y="293.9951">gemmes : unsigned int[6]</text><text fill="#000000" font-family="sans-serif" font-size="14" lengthAdjust="spacing" textLength="4" x="29" y="310.292">&#160;</text><ellipse cx="20" cy="323.2422" fill="#84BE84" rx="3" ry="3" style="stroke:#038048;stroke-width:1.0;"/><text fill="#000000" font-family="sans-serif" font-size="14" lengthAdjust="spacing" textLength="361" x="29" y="326.5889">virtual StockGemmes&amp; ajouter_jeton(Jeton jeton);</text><ellipse cx="20" cy="339.5391" fill="#84BE84" rx="3" ry="3" style="stroke:#038048;stroke-width:1.0;"/><text fill="#000000" font-family="sans-serif" font-size="14" lengthAdjust="spacing" textLength="357" x="29" y="342.8857">virtual StockGemmes&amp; retirer_jeton(Jeton jeton);</text><ellipse cx="20" cy="355.8359" fill="#84BE84" rx="3" ry="3" style="stroke:#038048;stroke-width:1.0;"/><text fill="#000000" font-family="sans-serif" font-size="14" lengthAdjust="spacing" textLength="215" x="29" y="359.1826">bool inclus(Jeton jeton) const;</text><ellipse cx="20" cy="372.1328" fill="#84BE84" rx="3" ry="3" style="stroke:#038048;stroke-width:1.0;"/><text fill="#000000" font-family="sans-serif" font-size="14" lengthAdjust="spacing" textLength="131" x="29" y="375.4795">Jeton max() const;</text><ellipse cx="20" cy="388.4297" fill="#84BE84" rx="3" ry="3" style="stroke:#038048;stroke-width:1.0;"/><text fill="#000000" font-family="sans-serif" font-size="14" lengthAdjust="spacing" textLength="197" x="29" y="391.7764">virtual Jeton random_pop();</text><ellipse cx="20" cy="404.7266" fill="#84BE84" rx="3" ry="3" style="stroke:#038048;stroke-width:1.0;"/><text fill="#000000" font-family="sans-serif" font-size="14" lengthAdjust="spacing" textLength="211" x="29" y="408.0732">virtual Jeton random_tirage();</text><ellipse cx="20" cy="421.0234" fill="#84BE84" rx="3" ry="3" style="stroke:#038048;stroke-width:1.0;"/><text fill="#000000" font-family="sans-serif" font-size="14" lengthAdjust="spacing" textLength="225" x="29" y="424.3701">sauvegarder()const : std::string</text><ellipse cx="20" cy="437.3203" fill="#84BE84" rx="3" ry="3" style="stroke:#038048;stroke-width:1.0;"/><text fill="#000000" font-family="sans-serif" font-size="14" lengthAdjust="spacing" textLength="463" x="29" y="440.667">operator+(autre_stock : const StockGemmes&amp;) : StockGemmes</text><ellipse cx="20" cy="453.6172" fill="#84BE84" rx="3" ry="3" style="stroke:#038048;stroke-width:1.0;"/><text fill="#000000" font-family="sans-serif" font-size="14" lengthAdjust="spacing" textLength="458" x="29" y="456.9639">operator-(autre_stock : const StockGemmes&amp;) : StockGemmes</text><ellipse cx="20" cy="469.9141" fill="#84BE84" rx="3" ry="3" style="stroke:#038048;stroke-width:1.0;"/><text fill="#000000" font-family="sans-serif" font-size="14" lengthAdjust="spacing" textLength="463" x="29" y="473.2607">operator=(autre_stock : const StockGemmes&amp;) : StockGemmes</text><ellipse cx="20" cy="486.2109" fill="#84BE84" rx="3" ry="3" style="stroke:#038048;stroke-width:1.0;"/><text fill="#000000" font-family="sans-serif" font-size="14" lengthAdjust="spacing" textLength="340" x="29" y="489.5576">operator*(const unsigned int i) : StockGemmes</text><ellipse cx="20" cy="502.5078" fill="#84BE84" rx="3" ry="3" style="stroke:#038048;stroke-width:1.0;"/><text fill="#000000" font-family="sans-serif" font-size="14" lengthAdjust="spacing" textLength="389" x="29" y="505.8545">operator+=(const StockGemmes&amp; autre_stock) : void</text><ellipse cx="20" cy="518.8047" fill="#84BE84" rx="3" ry="3" style="stroke:#038048;stroke-width:1.0;"/><text fill="#000000" font-family="sans-serif" font-size="14" lengthAdjust="spacing" textLength="384" x="29" y="522.1514">operator-=(const StockGemmes&amp; autre_stock) : void</text><ellipse cx="20" cy="535.1016" fill="#84BE84" rx="3" ry="3" style="stroke:#038048;stroke-width:1.0;"/><text fill="#000000" font-family="sans-serif" font-size="14" lengthAdjust="spacing" textLength="488" x="29" y="538.4482">operator/(const StockGemmes&amp; autre_stock)const : StockGemmes</text><ellipse cx="20" cy="551.3984" fill="#84BE84" rx="3" ry="3" style="stroke:#038048;stroke-width:1.0;"/><text fill="#000000" font-family="sans-serif" font-size="14" lengthAdjust="spacing" textLength="330" x="29" y="554.7451">operator&lt;(const StockGemmes&amp; s)const : int</text><ellipse cx="20" cy="567.6953" fill="#84BE84" rx="3" ry="3" style="stroke:#038048;stroke-width:1.0;"/><text fill="#000000" font-family="sans-serif" font-size="14" lengthAdjust="spacing" textLength="106" x="29" y="571.042">get_Bleu() : int</text><ellipse cx="20" cy="583.9922" fill="#84BE84" rx="3" ry="3" style="stroke:#038048;stroke-width:1.0;"/><text fill="#000000" font-family="sans-serif" font-size="14" lengthAdjust="spacing" textLength="107" x="29" y="587.3389">get_Vert() : int</text><ellipse cx="20" cy="600.2891" fill="#84BE84" rx="3" ry="3" style="stroke:#038048;stroke-width:1.0;"/><text fill="#000000" font-family="sans-serif" font-size="14" lengthAdjust="spacing" textLength="114" x="29" y="603.6357">get_Blanc() : int</text><ellipse cx="20" cy="616.5859" fill="#84BE84" rx="3" ry="3" style="stroke:#038048;stroke-width:1.0;"/><text fill="#000000" font-family="sans-serif" font-size="14" lengthAdjust="spacing" textLength="120" x="29" y="619.9326">get_Rouge() : int</text><ellipse cx="20" cy="632.8828" fill="#84BE84" rx="3" ry="3" style="stroke:#038048;stroke-width:1.0;"/><text fill="#000000" font-family="sans-serif" font-size="14" lengthAdjust="spacing" textLength="104" x="29" y="636.2295">get_Noir() : int</text><ellipse cx="20" cy="649.1797" fill="#84BE84" rx="3" ry="3" style="stroke:#038048;stroke-width:1.0;"/><text fill="#000000" font-family="sans-serif" font-size="14" lengthAdjust="spacing" textLength="112" x="29" y="652.5264">get_Perle() : int</text><ellipse cx="20" cy="665.4766" fill="#84BE84" rx="3" ry="3" style="stroke:#038048;stroke-width:1.0;"/><text fill="#000000" font-family="sans-serif" font-size="14" lengthAdjust="spacing" textLength="114" x="29" y="668.8232">set_Bleu() : void</text><ellipse cx="20" cy="681.7734" fill="#84BE84" rx="3" ry="3" style="stroke:#038048;stroke-width:1.0;"/><text fill="#000000" font-family="sans-serif" font-size="14" lengthAdjust="spacing" textLength="115" x="29" y="685.1201">set_Vert() : void</text><ellipse cx="20" cy="698.0703" fill="#84BE84" rx="3" ry="3" style="stroke:#038048;stroke-width:1.0;"/><text fill="#000000" font-family="sans-serif" font-size="14" lengthAdjust="spacing" textLength="122" x="29" y="701.417">set_Blanc() : void</text><ellipse cx="20" cy="714.3672" fill="#84BE84" rx="3" ry="3" style="stroke:#038048;stroke-width:1.0;"/><text fill="#000000" font-family="sans-serif" font-size="14" lengthAdjust="spacing" textLength="128" x="29" y="717.7139">set_Rouge() : void</text><ellipse cx="20" cy="730.6641" fill="#84BE84" rx="3" ry="3" style="stroke:#038048;stroke-width:1.0;"/><text fill="#000000" font-family="sans-serif" font-size="14" lengthAdjust="spacing" textLength="112" x="29" y="734.0107">set_Noir() : void</text><ellipse cx="20" cy="746.9609" fill="#84BE84" rx="3" ry="3" style="stroke:#038048;stroke-width:1.0;"/><text fill="#000000" font-family="sans-serif" font-size="14" lengthAdjust="spacing" textLength="120" x="29" y="750.3076">set_Perle() : void</text><ellipse cx="20" cy="763.2578" fill="#84BE84" rx="3" ry="3" style="stroke:#038048;stroke-width:1.0;"/><text fill="#000000" font-family="sans-serif" font-size="14" lengthAdjust="spacing" textLength="967" x="29" y="766.6045">stockGemmes(bleu : unsigned int, vert : unsigned int, blanc : unsigned int, rouge : unsigned int, noir : unsigned int, perle : unsigned int)</text><ellipse cx="20" cy="779.5547" fill="#84BE84" rx="3" ry="3" style="stroke:#038048;stroke-width:1.0;"/><text fill="#000000" font-family="sans-serif" font-size="14" lengthAdjust="spacing" textLength="328" x="29" y="782.9014">StockGemmes(autre : const StockGemmes&amp;)</text><ellipse cx="20" cy="795.8516" fill="#84BE84" rx="3" ry="3" style="stroke:#038048;stroke-width:1.0;"/><text fill="#000000" font-family="sans-serif" font-size="14" lengthAdjust="spacing" textLength="127" x="29" y="799.1982">~StockGemmes()</text><text fill="#000000" font-family="sans-serif" font-size="14" lengthAdjust="spacing" textLength="4" x="29" y="815.4951">&#160;</text><text fill="#000000" font-family="sans-serif" font-size="14" lengthAdjust="spacing" textLength="4" x="15" y="852.0889">&#160;</text><text fill="#000000" font-family="sans-serif" font-size="14" lengthAdjust="spacing" textLength="361" x="15" y="868.3857">total_stock(stock : stockGemmes&amp;) : unsigned int</text><line style="stroke:#181818;stroke-width:1.0;" x1="10" x2="357" y1="830.9453" y2="830.9453"/><text fill="#000000" font-family="sans-serif" font-size="14" lengthAdjust="spacing" textLength="297" x="357" y="835.292">Fonctions externes li&#233;es &#224; StockGemmes</text><line style="stroke:#181818;stroke-width:1.0;" x1="654" x2="1001" y1="830.9453" y2="830.9453"/></g><!--class StockGemmesOr--><g id="elem_StockGemmesOr"><rect codeLine="47" fill="#F1F1F1" height="373.9375" id="StockGemmesOr" rx="2.5" ry="2.5" style="stroke:#181818;stroke-width:0.5;" width="1140" x="210.5" y="936"/><ellipse cx="714.75" cy="952" fill="#ADD1B2" rx="11" ry="11" style="stroke:#181818;stroke-width:1.0;"/><path d="M717.0938,947.6719 C716.1563,947.2344 715.5625,947.0938 714.6875,947.0938 C712.0625,947.0938 710.0625,949.1719 710.0625,951.8906 L710.0625,953.0156 C710.0625,955.5938 712.1719,957.4844 715.0625,957.4844 C716.2813,957.4844 717.4375,957.1875 718.1875,956.6406 C718.7656,956.2344 719.0938,955.7813 719.0938,955.3906 C719.0938,954.9375 718.7031,954.5469 718.2344,954.5469 C718.0156,954.5469 717.8125,954.625 717.625,954.8125 C717.1719,955.2969 717.1719,955.2969 716.9844,955.3906 C716.5625,955.6563 715.875,955.7813 715.1094,955.7813 C713.0625,955.7813 711.7656,954.6875 711.7656,952.9844 L711.7656,951.8906 C711.7656,950.1094 713.0156,948.7969 714.75,948.7969 C715.3281,948.7969 715.9375,948.9531 716.4063,949.2031 C716.8906,949.4844 717.0625,949.7031 717.1563,950.1094 C717.2188,950.5156 717.25,950.6406 717.3906,950.7656 C717.5313,950.9063 717.7656,951.0156 717.9844,951.0156 C718.25,951.0156 718.5156,950.875 718.6875,950.6563 C718.7969,950.5 718.8281,950.3125 718.8281,949.8906 L718.8281,948.4688 C718.8281,948.0313 718.8125,947.9063 718.7188,947.75 C718.5625,947.4844 718.2813,947.3438 717.9844,947.3438 C717.6875,947.3438 717.4844,947.4375 717.2656,947.75 L717.0938,947.6719 Z " fill="#000000"/><text fill="#000000" font-family="sans-serif" font-size="14" lengthAdjust="spacing" textLength="123" x="735.25" y="956.8467">StockGemmesOr</text><line style="stroke:#181818;stroke-width:0.5;" x1="211.5" x2="1349.5" y1="968" y2="968"/><text fill="#000000" font-family="sans-serif" font-size="14" lengthAdjust="spacing" textLength="161" x="216.5" y="984.9951">jeton_or : unsigned int</text><line style="stroke:#181818;stroke-width:0.5;" x1="211.5" x2="1349.5" y1="992.2969" y2="992.2969"/><ellipse cx="221.5" cy="1005.9453" fill="#84BE84" rx="3" ry="3" style="stroke:#038048;stroke-width:1.0;"/><text fill="#000000" font-family="sans-serif" font-size="14" lengthAdjust="spacing" textLength="397" x="230.5" y="1009.292">ajouter_jeton(Jeton jeton) override : StockGemmesOr&amp;</text><ellipse cx="221.5" cy="1022.2422" fill="#84BE84" rx="3" ry="3" style="stroke:#038048;stroke-width:1.0;"/><text fill="#000000" font-family="sans-serif" font-size="14" lengthAdjust="spacing" textLength="393" x="230.5" y="1025.5889">retirer_jeton(Jeton jeton) override : StockGemmesOr&amp;</text><ellipse cx="221.5" cy="1038.5391" fill="#84BE84" rx="3" ry="3" style="stroke:#038048;stroke-width:1.0;"/><text fill="#000000" font-family="sans-serif" font-size="14" lengthAdjust="spacing" textLength="219" x="230.5" y="1041.8857">inclus(Jeton jeton) const : bool</text><ellipse cx="221.5" cy="1054.8359" fill="#84BE84" rx="3" ry="3" style="stroke:#038048;stroke-width:1.0;"/><text fill="#000000" font-family="sans-serif" font-size="14" lengthAdjust="spacing" textLength="135" x="230.5" y="1058.1826">max() const : Jeton</text><ellipse cx="221.5" cy="1071.1328" fill="#84BE84" rx="3" ry="3" style="stroke:#038048;stroke-width:1.0;"/><text fill="#000000" font-family="sans-serif" font-size="14" lengthAdjust="spacing" textLength="216" x="230.5" y="1074.4795">random_pop() override : Jeton</text><ellipse cx="221.5" cy="1087.4297" fill="#84BE84" rx="3" ry="3" style="stroke:#038048;stroke-width:1.0;"/><text fill="#000000" font-family="sans-serif" font-size="14" lengthAdjust="spacing" textLength="230" x="230.5" y="1090.7764">random_tirage() override : Jeton</text><text fill="#000000" font-family="sans-serif" font-size="14" lengthAdjust="spacing" textLength="4" x="230.5" y="1107.0732">&#160;</text><ellipse cx="221.5" cy="1120.0234" fill="#84BE84" rx="3" ry="3" style="stroke:#038048;stroke-width:1.0;"/><text fill="#000000" font-family="sans-serif" font-size="14" lengthAdjust="spacing" textLength="524" x="230.5" y="1123.3701">operator+(autre_stock : const StockGemmes&amp;) const : StockGemmesOr</text><ellipse cx="221.5" cy="1136.3203" fill="#84BE84" rx="3" ry="3" style="stroke:#038048;stroke-width:1.0;"/><text fill="#000000" font-family="sans-serif" font-size="14" lengthAdjust="spacing" textLength="541" x="230.5" y="1139.667">operator+(autre_stock : const StockGemmesOr&amp;) const : StockGemmesOr</text><ellipse cx="221.5" cy="1152.6172" fill="#84BE84" rx="3" ry="3" style="stroke:#038048;stroke-width:1.0;"/><text fill="#000000" font-family="sans-serif" font-size="14" lengthAdjust="spacing" textLength="519" x="230.5" y="1155.9639">operator-(autre_stock : const StockGemmes&amp;) const : StockGemmesOr</text><ellipse cx="221.5" cy="1168.9141" fill="#84BE84" rx="3" ry="3" style="stroke:#038048;stroke-width:1.0;"/><text fill="#000000" font-family="sans-serif" font-size="14" lengthAdjust="spacing" textLength="480" x="230.5" y="1172.2607">operator=(autre_stock : const StockGemmes&amp;) : StockGemmesOr</text><ellipse cx="221.5" cy="1185.2109" fill="#84BE84" rx="3" ry="3" style="stroke:#038048;stroke-width:1.0;"/><text fill="#000000" font-family="sans-serif" font-size="14" lengthAdjust="spacing" textLength="459" x="230.5" y="1188.5576">operator=(autre_stock : const StockBonus&amp;) : StockGemmesOr</text><ellipse cx="221.5" cy="1201.5078" fill="#84BE84" rx="3" ry="3" style="stroke:#038048;stroke-width:1.0;"/><text fill="#000000" font-family="sans-serif" font-size="14" lengthAdjust="spacing" textLength="524" x="230.5" y="1204.8545">operator=(autre_stock : const StockGemmes&amp;) const : StockGemmesOr</text><ellipse cx="221.5" cy="1217.8047" fill="#84BE84" rx="3" ry="3" style="stroke:#038048;stroke-width:1.0;"/><text fill="#000000" font-family="sans-serif" font-size="14" lengthAdjust="spacing" textLength="524" x="230.5" y="1221.1514">operator=(autre_stock : const StockGemmesOr&amp;) const : StockGemmes</text><ellipse cx="221.5" cy="1234.1016" fill="#84BE84" rx="3" ry="3" style="stroke:#038048;stroke-width:1.0;"/><text fill="#000000" font-family="sans-serif" font-size="14" lengthAdjust="spacing" textLength="92" x="230.5" y="1237.4482">get_Or() : int</text><ellipse cx="221.5" cy="1250.3984" fill="#84BE84" rx="3" ry="3" style="stroke:#038048;stroke-width:1.0;"/><text fill="#000000" font-family="sans-serif" font-size="14" lengthAdjust="spacing" textLength="100" x="230.5" y="1253.7451">set_Or() : void</text><ellipse cx="221.5" cy="1266.6953" fill="#84BE84" rx="3" ry="3" style="stroke:#038048;stroke-width:1.0;"/><text fill="#000000" font-family="sans-serif" font-size="14" lengthAdjust="spacing" textLength="1114" x="230.5" y="1270.042">stockGemmes(bleu : unsigned int, vert : unsigned int, blanc : unsigned int, rouge : unsigned int, noir : unsigned int, perle : unsigned int, jaune : unsigned int)</text><ellipse cx="221.5" cy="1282.9922" fill="#84BE84" rx="3" ry="3" style="stroke:#038048;stroke-width:1.0;"/><text fill="#000000" font-family="sans-serif" font-size="14" lengthAdjust="spacing" textLength="328" x="230.5" y="1286.3389">StockGemmes(autre : const StockGemmes&amp;)</text><ellipse cx="221.5" cy="1299.2891" fill="#84BE84" rx="3" ry="3" style="stroke:#038048;stroke-width:1.0;"/><text fill="#000000" font-family="sans-serif" font-size="14" lengthAdjust="spacing" textLength="127" x="230.5" y="1302.6357">~StockGemmes()</text></g><!--class Jeton--><g id="elem_Jeton"><rect codeLine="72" fill="#F1F1F1" height="178.375" id="Jeton" rx="2.5" ry="2.5" style="stroke:#181818;stroke-width:0.5;" width="70" x="1029.5" y="7"/><ellipse cx="1044.5" cy="23" fill="#EB937F" rx="11" ry="11" style="stroke:#181818;stroke-width:1.0;"/><path d="M1043.2969,23.875 L1044.75,23.875 L1044.75,23.9844 C1044.75,24.3906 1044.7813,24.5469 1044.8594,24.7031 C1045.0156,24.9531 1045.2969,25.1094 1045.5938,25.1094 C1045.8438,25.1094 1046.1094,24.9688 1046.2656,24.75 C1046.3906,24.5938 1046.4219,24.4375 1046.4219,23.9844 L1046.4219,22.0625 C1046.4219,21.9063 1046.4219,21.8594 1046.4063,21.7031 C1046.3438,21.2344 1046.0313,20.9219 1045.5781,20.9219 C1045.3281,20.9219 1045.0625,21.0625 1044.8906,21.2813 C1044.7813,21.4531 1044.75,21.6094 1044.75,22.0625 L1044.75,22.1875 L1043.2969,22.1875 L1043.2969,19.7813 L1047.2813,19.7813 L1047.2813,20.6406 C1047.2813,21.0469 1047.3125,21.2188 1047.3906,21.375 C1047.5625,21.625 1047.8438,21.7813 1048.125,21.7813 C1048.3906,21.7813 1048.6563,21.6406 1048.8281,21.4219 C1048.9375,21.25 1048.9688,21.1094 1048.9688,20.6406 L1048.9688,18.0938 L1041.3438,18.0938 C1040.9063,18.0938 1040.7813,18.1094 1040.625,18.2031 C1040.375,18.3594 1040.2188,18.6563 1040.2188,18.9375 C1040.2188,19.2188 1040.3594,19.4688 1040.5781,19.6406 C1040.7344,19.75 1040.9219,19.7813 1041.3438,19.7813 L1041.5938,19.7813 L1041.5938,26.2969 L1041.3438,26.2969 C1040.9375,26.2969 1040.7813,26.3125 1040.625,26.4219 C1040.375,26.5938 1040.2188,26.8594 1040.2188,27.1563 C1040.2188,27.4219 1040.3594,27.6719 1040.5781,27.8281 C1040.7188,27.9531 1040.9531,28 1041.3438,28 L1049.3438,28 L1049.3438,25.4219 C1049.3438,24.9844 1049.3125,24.8438 1049.2344,24.6875 C1049.0625,24.4375 1048.7813,24.2813 1048.5,24.2813 C1048.2344,24.2813 1047.9688,24.3906 1047.7969,24.6406 C1047.6875,24.7969 1047.6563,24.9375 1047.6563,25.4219 L1047.6563,26.2969 L1043.2969,26.2969 L1043.2969,23.875 Z " fill="#000000"/><text fill="#000000" font-family="sans-serif" font-size="14" lengthAdjust="spacing" textLength="38" x="1058.5" y="27.8467">Jeton</text><line style="stroke:#181818;stroke-width:0.5;" x1="1030.5" x2="1098.5" y1="39" y2="39"/><text fill="#000000" font-family="sans-serif" font-size="14" lengthAdjust="spacing" textLength="22" x="1035.5" y="55.9951">Nul</text><text fill="#000000" font-family="sans-serif" font-size="14" lengthAdjust="spacing" textLength="31" x="1035.5" y="72.292">Bleu</text><text fill="#000000" font-family="sans-serif" font-size="14" lengthAdjust="spacing" textLength="32" x="1035.5" y="88.5889">Vert</text><text fill="#000000" font-family="sans-serif" font-size="14" lengthAdjust="spacing" textLength="39" x="1035.5" y="104.8857">Blanc</text><text fill="#000000" font-family="sans-serif" font-size="14" lengthAdjust="spacing" textLength="45" x="1035.5" y="121.1826">Rouge</text><text fill="#000000" font-family="sans-serif" font-size="14" lengthAdjust="spacing" textLength="29" x="1035.5" y="137.4795">Noir</text><text fill="#000000" font-family="sans-serif" font-size="14" lengthAdjust="spacing" textLength="37" x="1035.5" y="153.7764">Perle</text><text fill="#000000" font-family="sans-serif" font-size="14" lengthAdjust="spacing" textLength="17" x="1035.5" y="170.0732">Or</text><line style="stroke:#181818;stroke-width:0.5;" x1="1030.5" x2="1098.5" y1="177.375" y2="177.375"/></g><!--class Joueur--><g id="elem_Joueur"><rect fill="#F1F1F1" height="48" id="Joueur" rx="2.5" ry="2.5" style="stroke:#181818;stroke-width:0.5;" width="76" x="467.5" y="72"/><ellipse cx="482.5" cy="88" fill="#ADD1B2" rx="11" ry="11" style="stroke:#181818;stroke-width:1.0;"/><path d="M484.8438,83.6719 C483.9063,83.2344 483.3125,83.0938 482.4375,83.0938 C479.8125,83.0938 477.8125,85.1719 477.8125,87.8906 L477.8125,89.0156 C477.8125,91.5938 479.9219,93.4844 482.8125,93.4844 C484.0313,93.4844 485.1875,93.1875 485.9375,92.6406 C486.5156,92.2344 486.8438,91.7813 486.8438,91.3906 C486.8438,90.9375 486.4531,90.5469 485.9844,90.5469 C485.7656,90.5469 485.5625,90.625 485.375,90.8125 C484.9219,91.2969 484.9219,91.2969 484.7344,91.3906 C484.3125,91.6563 483.625,91.7813 482.8594,91.7813 C480.8125,91.7813 479.5156,90.6875 479.5156,88.9844 L479.5156,87.8906 C479.5156,86.1094 480.7656,84.7969 482.5,84.7969 C483.0781,84.7969 483.6875,84.9531 484.1563,85.2031 C484.6406,85.4844 484.8125,85.7031 484.9063,86.1094 C484.9688,86.5156 485,86.6406 485.1406,86.7656 C485.2813,86.9063 485.5156,87.0156 485.7344,87.0156 C486,87.0156 486.2656,86.875 486.4375,86.6563 C486.5469,86.5 486.5781,86.3125 486.5781,85.8906 L486.5781,84.4688 C486.5781,84.0313 486.5625,83.9063 486.4688,83.75 C486.3125,83.4844 486.0313,83.3438 485.7344,83.3438 C485.4375,83.3438 485.2344,83.4375 485.0156,83.75 L484.8438,83.6719 Z " fill="#000000"/><text fill="#000000" font-family="sans-serif" font-size="14" lengthAdjust="spacing" textLength="44" x="496.5" y="92.8467">Joueur</text><line style="stroke:#181818;stroke-width:0.5;" x1="468.5" x2="542.5" y1="104" y2="104"/><line style="stroke:#181818;stroke-width:0.5;" x1="468.5" x2="542.5" y1="112" y2="112"/></g><!--class CarteJoaillerie--><g id="elem_CarteJoaillerie"><rect fill="#F1F1F1" height="48" id="CarteJoaillerie" rx="2.5" ry="2.5" style="stroke:#181818;stroke-width:0.5;" width="133" x="861" y="72"/><ellipse cx="876" cy="88" fill="#ADD1B2" rx="11" ry="11" style="stroke:#181818;stroke-width:1.0;"/><path d="M878.3438,83.6719 C877.4063,83.2344 876.8125,83.0938 875.9375,83.0938 C873.3125,83.0938 871.3125,85.1719 871.3125,87.8906 L871.3125,89.0156 C871.3125,91.5938 873.4219,93.4844 876.3125,93.4844 C877.5313,93.4844 878.6875,93.1875 879.4375,92.6406 C880.0156,92.2344 880.3438,91.7813 880.3438,91.3906 C880.3438,90.9375 879.9531,90.5469 879.4844,90.5469 C879.2656,90.5469 879.0625,90.625 878.875,90.8125 C878.4219,91.2969 878.4219,91.2969 878.2344,91.3906 C877.8125,91.6563 877.125,91.7813 876.3594,91.7813 C874.3125,91.7813 873.0156,90.6875 873.0156,88.9844 L873.0156,87.8906 C873.0156,86.1094 874.2656,84.7969 876,84.7969 C876.5781,84.7969 877.1875,84.9531 877.6563,85.2031 C878.1406,85.4844 878.3125,85.7031 878.4063,86.1094 C878.4688,86.5156 878.5,86.6406 878.6406,86.7656 C878.7813,86.9063 879.0156,87.0156 879.2344,87.0156 C879.5,87.0156 879.7656,86.875 879.9375,86.6563 C880.0469,86.5 880.0781,86.3125 880.0781,85.8906 L880.0781,84.4688 C880.0781,84.0313 880.0625,83.9063 879.9688,83.75 C879.8125,83.4844 879.5313,83.3438 879.2344,83.3438 C878.9375,83.3438 878.7344,83.4375 878.5156,83.75 L878.3438,83.6719 Z " fill="#000000"/><text fill="#000000" font-family="sans-serif" font-size="14" lengthAdjust="spacing" textLength="101" x="890" y="92.8467">CarteJoaillerie</text><line style="stroke:#181818;stroke-width:0.5;" x1="862" x2="993" y1="104" y2="104"/><line style="stroke:#181818;stroke-width:0.5;" x1="862" x2="993" y1="112" y2="112"/></g><!--class CarteRoyale--><g id="elem_CarteRoyale"><rect fill="#F1F1F1" height="48" id="CarteRoyale" rx="2.5" ry="2.5" style="stroke:#181818;stroke-width:0.5;" width="120" x="578.5" y="72"/><ellipse cx="593.5" cy="88" fill="#ADD1B2" rx="11" ry="11" style="stroke:#181818;stroke-width:1.0;"/><path d="M595.8438,83.6719 C594.9063,83.2344 594.3125,83.0938 593.4375,83.0938 C590.8125,83.0938 588.8125,85.1719 588.8125,87.8906 L588.8125,89.0156 C588.8125,91.5938 590.9219,93.4844 593.8125,93.4844 C595.0313,93.4844 596.1875,93.1875 596.9375,92.6406 C597.5156,92.2344 597.8438,91.7813 597.8438,91.3906 C597.8438,90.9375 597.4531,90.5469 596.9844,90.5469 C596.7656,90.5469 596.5625,90.625 596.375,90.8125 C595.9219,91.2969 595.9219,91.2969 595.7344,91.3906 C595.3125,91.6563 594.625,91.7813 593.8594,91.7813 C591.8125,91.7813 590.5156,90.6875 590.5156,88.9844 L590.5156,87.8906 C590.5156,86.1094 591.7656,84.7969 593.5,84.7969 C594.0781,84.7969 594.6875,84.9531 595.1563,85.2031 C595.6406,85.4844 595.8125,85.7031 595.9063,86.1094 C595.9688,86.5156 596,86.6406 596.1406,86.7656 C596.2813,86.9063 596.5156,87.0156 596.7344,87.0156 C597,87.0156 597.2656,86.875 597.4375,86.6563 C597.5469,86.5 597.5781,86.3125 597.5781,85.8906 L597.5781,84.4688 C597.5781,84.0313 597.5625,83.9063 597.4688,83.75 C597.3125,83.4844 597.0313,83.3438 596.7344,83.3438 C596.4375,83.3438 596.2344,83.4375 596.0156,83.75 L595.8438,83.6719 Z " fill="#000000"/><text fill="#000000" font-family="sans-serif" font-size="14" lengthAdjust="spacing" textLength="88" x="607.5" y="92.8467">CarteRoyale</text><line style="stroke:#181818;stroke-width:0.5;" x1="579.5" x2="697.5" y1="104" y2="104"/><line style="stroke:#181818;stroke-width:0.5;" x1="579.5" x2="697.5" y1="112" y2="112"/></g><!--reverse link StockGemmes to StockGemmesOr--><g id="link_StockGemmes_StockGemmesOr"><path codeLine="84" d="M667.8095,892.3168 C677.7875,912.6538 679.717,916.586 689.24,935.996 " fill="none" id="StockGemmes-backto-StockGemmesOr" style="stroke:#181818;stroke-width:1.0;"/><polygon fill="none" points="659.881,876.157,662.4229,894.9596,673.1961,889.6739,659.881,876.157" style="stroke:#181818;stroke-width:1.0;"/></g><!--reverse link Plateau to StockGemmes--><g id="link_Plateau_StockGemmes"><path codeLine="85" d="M260.7256,150.8043 C276.7196,177.5043 292.626,204.07 317.099,244.93 " fill="none" id="Plateau-backto-StockGemmes" style="stroke:#181818;stroke-width:1.0;"/><polygon fill="#181818" points="254.559,140.51,254.2108,147.7127,260.7256,150.8043,261.0737,143.6016,254.559,140.51" style="stroke:#181818;stroke-width:1.0;"/></g><!--reverse link Joueur to StockGemmes--><g id="link_Joueur_StockGemmes"><path codeLine="86" d="M505.5,132.25 C505.5,158.49 505.5,192.43 505.5,245 " fill="none" id="Joueur-backto-StockGemmes" style="stroke:#181818;stroke-width:1.0;"/><polygon fill="#181818" points="505.5,120.25,501.5,126.25,505.5,132.25,509.5,126.25,505.5,120.25" style="stroke:#181818;stroke-width:1.0;"/></g><!--reverse link CarteJoaillerie to StockGemmes--><g id="link_CarteJoaillerie_StockGemmes"><path codeLine="87" d="M898.1956,129.1144 C874.2526,155.3544 840.423,192.43 792.462,245 " fill="none" id="CarteJoaillerie-backto-StockGemmes" style="stroke:#181818;stroke-width:1.0;"/><polygon fill="#181818" points="906.284,120.25,899.285,121.9861,898.1956,129.1144,905.1946,127.3783,906.284,120.25" style="stroke:#181818;stroke-width:1.0;"/></g><!--reverse link CarteRoyale to StockGemmes--><g id="link_CarteRoyale_StockGemmes"><path codeLine="88" d="M628.4969,131.7827 C620.9519,158.0227 611.056,192.43 595.941,245 " fill="none" id="CarteRoyale-backto-StockGemmes" style="stroke:#181818;stroke-width:1.0;"/><polygon fill="#181818" points="631.813,120.25,626.3107,124.911,628.4969,131.7827,633.9992,127.1217,631.813,120.25" style="stroke:#181818;stroke-width:1.0;"/></g><!--reverse link CarteJoaillerie to StockGemmesOr--><g id="link_CarteJoaillerie_StockGemmesOr"><path codeLine="89" d="M955.304,129.3975 C977.897,156.9375 1005.547,196.13 1019.5,245 C1096.49,514.671 1124.95,616.135 1019.5,876 C1011.05,896.829 999.892,916.864 987.012,935.887 " fill="none" id="CarteJoaillerie-backto-StockGemmesOr" style="stroke:#181818;stroke-width:1.0;"/><polygon fill="#181818" points="947.693,120.12,948.406,127.2958,955.304,129.3975,954.591,122.2218,947.693,120.12" style="stroke:#181818;stroke-width:1.0;"/></g><!--SRC=[pLPTQzim57tFhn0CYjqa30hRGvRc8OKDyj2K3lQoZg3O5wDCaSAL55hsyLlskj_HFxPhsKuKsqcNfeC5OYltddDrhcGT9v7S67OZkGNks71eXCeaMAr6eywt3gDFdosvHP406p2Eo1-6nNMIethipIZ_baYDAS8LDs08d6Xbx0x5AICo1IaJolRO1J4lYFgZqqcyYezM9ry_m789ffpx5SlyJweMSZ-__UBJ_j9bQu7MSHdopnXVQ6S1PujSPkJ5CZ-EtnsY8LY11sbphIM9IAGpE_cYtmfLP9RyFgebgbaB07ALwkLifLTHV111gdW6Mv3XRWqPnnGmYekL7Z1Zqy70q6Qfh8Jf5I2t6hiHTnPXPl9UDtiJTXvJDDo0NNx_HFxbYVppg624Jm4JXpdTowWv3GjqvFIr5cczrsVoNZz5gxPfl-HXMmcp8LBJ9I43EnjBS57S27y2j2tXiUGgQOdVQfS_LutujHRO4hu1b7Mu2SK42sD2DRNuLaujiTLJIsm4rU9RHM5Yku3HdAJL3AJ7rgIh4PpdeXfHp1KreehaD8AhN4ij6fUIWZqj3aFxCIZHTpz3VDmf3BRFtckLM44q1lTaRugyKOh7ttHx_1KM8kpM8gssN1OFOLITG5CxUw7aLakUOcdAtkvckjvzwCZxpPTfMdaKAUoUWocUbTJz1lmaTQyf4o5txH8Mc38bFBgQEt3ZSBOMJEN7xR1dk6-BET2A7rc7rkBlAlLVID7HldvCXR5MxgG2BzlAliKDt76ABTOunV_OdNfimPtwDvv5BWBABSjpKPZ7jIkEOVw-y8Fy1L56g3q_yg-00arj-84tUJ-YVQEweTCDlvClxkvizN_sV3VJcMW73XlXAuuM9feBAG45jETlzGENS2ntYdy0]--></g></svg>