<?xml version="1.0" encoding="us-ascii" standalone="no"?><svg xmlns="http://www.w3.org/2000/svg" xmlns:xlink="http://www.w3.org/1999/xlink" contentStyleType="text/css" height="1077px" preserveAspectRatio="none" style="width:1229px;height:1077px;background:#FFFFFF;" version="1.1" viewBox="0 0 1229 1077" width="1229px" zoomAndPan="magnify"><defs/><g><!--class Partie--><g id="elem_Partie"><rect codeLine="1" fill="#F1F1F1" height="846.5469" id="Partie" rx="2.5" ry="2.5" style="stroke:#181818;stroke-width:0.5;" width="1213" x="9" y="115"/><ellipse cx="589.75" cy="131" fill="#ADD1B2" rx="11" ry="11" style="stroke:#181818;stroke-width:1.0;"/><path d="M592.0938,126.6719 C591.1563,126.2344 590.5625,126.0938 589.6875,126.0938 C587.0625,126.0938 585.0625,128.1719 585.0625,130.8906 L585.0625,132.0156 C585.0625,134.5938 587.1719,136.4844 590.0625,136.4844 C591.2813,136.4844 592.4375,136.1875 593.1875,135.6406 C593.7656,135.2344 594.0938,134.7813 594.0938,134.3906 C594.0938,133.9375 593.7031,133.5469 593.2344,133.5469 C593.0156,133.5469 592.8125,133.625 592.625,133.8125 C592.1719,134.2969 592.1719,134.2969 591.9844,134.3906 C591.5625,134.6563 590.875,134.7813 590.1094,134.7813 C588.0625,134.7813 586.7656,133.6875 586.7656,131.9844 L586.7656,130.8906 C586.7656,129.1094 588.0156,127.7969 589.75,127.7969 C590.3281,127.7969 590.9375,127.9531 591.4063,128.2031 C591.8906,128.4844 592.0625,128.7031 592.1563,129.1094 C592.2188,129.5156 592.25,129.6406 592.3906,129.7656 C592.5313,129.9063 592.7656,130.0156 592.9844,130.0156 C593.25,130.0156 593.5156,129.875 593.6875,129.6563 C593.7969,129.5 593.8281,129.3125 593.8281,128.8906 L593.8281,127.4688 C593.8281,127.0313 593.8125,126.9063 593.7188,126.75 C593.5625,126.4844 593.2813,126.3438 592.9844,126.3438 C592.6875,126.3438 592.4844,126.4375 592.2656,126.75 L592.0938,126.6719 Z " fill="#000000"/><text fill="#000000" font-family="sans-serif" font-size="14" lengthAdjust="spacing" textLength="43" x="610.25" y="135.8467">Partie</text><line style="stroke:#181818;stroke-width:0.5;" x1="10" x2="1221" y1="147" y2="147"/><polygon fill="none" points="20,155.6484,24,159.6484,20,163.6484,16,159.6484" style="stroke:#B38D22;stroke-width:1.0;"/><text fill="#000000" font-family="sans-serif" font-size="14" lengthAdjust="spacing" text-decoration="underline" textLength="107" x="29" y="163.9951">partie : Partie*</text><rect fill="none" height="6" style="stroke:#C82930;stroke-width:1.0;" width="6" x="17" y="173.9453"/><text fill="#000000" font-family="sans-serif" font-size="14" lengthAdjust="spacing" textLength="261" x="29" y="180.292">cartes : std::vector&lt;CarteJoaillerie&gt;</text><rect fill="none" height="6" style="stroke:#C82930;stroke-width:1.0;" width="6" x="17" y="190.2422"/><text fill="#000000" font-family="sans-serif" font-size="14" lengthAdjust="spacing" textLength="127" x="29" y="196.5889">plateau : Plateau*</text><rect fill="none" height="6" style="stroke:#C82930;stroke-width:1.0;" width="6" x="17" y="206.5391"/><text fill="#000000" font-family="sans-serif" font-size="14" lengthAdjust="spacing" textLength="72" x="29" y="212.8857">sac : Sac&amp;</text><rect fill="none" height="6" style="stroke:#C82930;stroke-width:1.0;" width="6" x="17" y="222.8359"/><text fill="#000000" font-family="sans-serif" font-size="14" lengthAdjust="spacing" textLength="155" x="29" y="229.1826">pyramide : Pyramide*</text><rect fill="none" height="6" style="stroke:#C82930;stroke-width:1.0;" width="6" x="17" y="239.1328"/><text fill="#000000" font-family="sans-serif" font-size="14" lengthAdjust="spacing" textLength="101" x="29" y="245.4795">joueur1 Joueur</text><rect fill="none" height="6" style="stroke:#C82930;stroke-width:1.0;" width="6" x="17" y="255.4297"/><text fill="#000000" font-family="sans-serif" font-size="14" lengthAdjust="spacing" textLength="100" x="29" y="261.7764">joueur2 Joueur</text><rect fill="none" height="6" style="stroke:#C82930;stroke-width:1.0;" width="6" x="17" y="271.7266"/><text fill="#000000" font-family="sans-serif" font-size="14" lengthAdjust="spacing" textLength="159" x="29" y="278.0732">tour = 0 : unsigned int</text><rect fill="none" height="6" style="stroke:#C82930;stroke-width:1.0;" width="6" x="17" y="288.0234"/><text fill="#000000" font-family="sans-serif" font-size="14" lengthAdjust="spacing" textLength="303" x="29" y="294.3701">cartesRoyales : std::vector&lt;CarteRoyale&gt;</text><rect fill="none" height="6" style="stroke:#C82930;stroke-width:1.0;" width="6" x="17" y="304.3203"/><text fill="#000000" font-family="sans-serif" font-size="14" lengthAdjust="spacing" textLength="288" x="29" y="310.667">privileges_disponibles = 3 : unsigned int</text><rect fill="none" height="6" style="stroke:#C82930;stroke-width:1.0;" width="6" x="17" y="320.6172"/><text fill="#000000" font-family="sans-serif" font-size="14" lengthAdjust="spacing" textLength="224" x="29" y="326.9639">effet_rejouer = 0 : unsigned int</text><rect fill="none" height="6" style="stroke:#C82930;stroke-width:1.0;" width="6" x="17" y="336.9141"/><text fill="#000000" font-family="sans-serif" font-size="14" lengthAdjust="spacing" textLength="202" x="29" y="343.2607">statut_joueur1 = false : bool</text><rect fill="none" height="6" style="stroke:#C82930;stroke-width:1.0;" width="6" x="17" y="353.2109"/><text fill="#000000" font-family="sans-serif" font-size="14" lengthAdjust="spacing" textLength="201" x="29" y="359.5576">statut_joueur2 = false : bool</text><line style="stroke:#181818;stroke-width:0.5;" x1="10" x2="1221" y1="366.8594" y2="366.8594"/><ellipse cx="20" cy="380.5078" fill="#84BE84" rx="3" ry="3" style="stroke:#038048;stroke-width:1.0;"/><text fill="#000000" font-family="sans-serif" font-size="14" lengthAdjust="spacing" text-decoration="underline" textLength="149" x="29" y="383.8545">get_partie() : Partie*</text><ellipse cx="20" cy="396.8047" fill="#84BE84" rx="3" ry="3" style="stroke:#038048;stroke-width:1.0;"/><text fill="#000000" font-family="sans-serif" font-size="14" lengthAdjust="spacing" text-decoration="underline" textLength="235" x="29" y="400.1514">get_partie(std::string s) : Partie*</text><ellipse cx="20" cy="413.1016" fill="#84BE84" rx="3" ry="3" style="stroke:#038048;stroke-width:1.0;"/><text fill="#000000" font-family="sans-serif" font-size="14" lengthAdjust="spacing" text-decoration="underline" textLength="158" x="29" y="416.4482">delete_partie() : void*</text><polygon fill="#FFFF44" points="20,424.3984,24,428.3984,20,432.3984,16,428.3984" style="stroke:#B38D22;stroke-width:1.0;"/><text fill="#000000" font-family="sans-serif" font-size="14" lengthAdjust="spacing" textLength="215" x="29" y="432.7451">Partie(std::string s) {explicit}</text><polygon fill="#FFFF44" points="20,440.6953,24,444.6953,20,448.6953,16,444.6953" style="stroke:#B38D22;stroke-width:1.0;"/><text fill="#000000" font-family="sans-serif" font-size="14" lengthAdjust="spacing" textLength="53" x="29" y="449.042">Partie()</text><polygon fill="#FFFF44" points="20,456.9922,24,460.9922,20,464.9922,16,460.9922" style="stroke:#B38D22;stroke-width:1.0;"/><text fill="#000000" font-family="sans-serif" font-size="14" lengthAdjust="spacing" textLength="151" x="29" y="465.3389">Partie(const Partie&amp;)</text><polygon fill="#FFFF44" points="20,473.2891,24,477.2891,20,481.2891,16,477.2891" style="stroke:#B38D22;stroke-width:1.0;"/><text fill="#000000" font-family="sans-serif" font-size="14" lengthAdjust="spacing" textLength="131" x="29" y="481.6357">{virtual} ~Partie()</text><polygon fill="#FFFF44" points="20,489.5859,24,493.5859,20,497.5859,16,493.5859" style="stroke:#B38D22;stroke-width:1.0;"/><text fill="#000000" font-family="sans-serif" font-size="14" lengthAdjust="spacing" textLength="226" x="29" y="497.9326">operator=(const Partie&amp;) : void</text><text fill="#000000" font-family="sans-serif" font-size="14" lengthAdjust="spacing" textLength="4" x="29" y="514.2295">&#160;</text><ellipse cx="20" cy="527.1797" fill="#84BE84" rx="3" ry="3" style="stroke:#038048;stroke-width:1.0;"/><text fill="#000000" font-family="sans-serif" font-size="14" lengthAdjust="spacing" textLength="251" x="29" y="530.5264">lire_fichier(const char* fichier) : int</text><ellipse cx="20" cy="543.4766" fill="#84BE84" rx="3" ry="3" style="stroke:#038048;stroke-width:1.0;"/><text fill="#000000" font-family="sans-serif" font-size="14" lengthAdjust="spacing" textLength="124" x="29" y="546.8232">initCartes() : void</text><ellipse cx="20" cy="559.7734" fill="#84BE84" rx="3" ry="3" style="stroke:#038048;stroke-width:1.0;"/><text fill="#000000" font-family="sans-serif" font-size="14" lengthAdjust="spacing" textLength="239" x="29" y="563.1201">joueur_actif() const : unsigned int</text><ellipse cx="20" cy="576.0703" fill="#84BE84" rx="3" ry="3" style="stroke:#038048;stroke-width:1.0;"/><text fill="#000000" font-family="sans-serif" font-size="14" lengthAdjust="spacing" textLength="262" x="29" y="579.417">joueur_adverse() const : unsigned int</text><ellipse cx="20" cy="592.3672" fill="#84BE84" rx="3" ry="3" style="stroke:#038048;stroke-width:1.0;"/><text fill="#000000" font-family="sans-serif" font-size="14" lengthAdjust="spacing" textLength="226" x="29" y="595.7139">prend_privilege(Joueur&amp; joueur)</text><ellipse cx="20" cy="608.6641" fill="#84BE84" rx="3" ry="3" style="stroke:#038048;stroke-width:1.0;"/><text fill="#000000" font-family="sans-serif" font-size="14" lengthAdjust="spacing" textLength="561" x="29" y="612.0107">utilise_privilege(Joueur&amp; joueur, unsigned int colonne, unsigned int ligne) : void</text><ellipse cx="20" cy="624.9609" fill="#84BE84" rx="3" ry="3" style="stroke:#038048;stroke-width:1.0;"/><text fill="#000000" font-family="sans-serif" font-size="14" lengthAdjust="spacing" textLength="537" x="29" y="628.3076">remplir_plateau(Joueur&amp; joueur) : std::vector&lt;std::array&lt;unsigned int, 2&gt;&gt;</text><ellipse cx="20" cy="641.2578" fill="#84BE84" rx="3" ry="3" style="stroke:#038048;stroke-width:1.0;"/><text fill="#000000" font-family="sans-serif" font-size="14" lengthAdjust="spacing" textLength="310" x="29" y="644.6045">remplir_case() : std::array&lt;unsigned int, 2&gt;</text><ellipse cx="20" cy="657.5547" fill="#84BE84" rx="3" ry="3" style="stroke:#038048;stroke-width:1.0;"/><text fill="#000000" font-family="sans-serif" font-size="14" lengthAdjust="spacing" textLength="481" x="29" y="660.9014">acheter_carte(Joueur&amp; joueur, int niv, int colonne) : CarteJoaillerie&amp;</text><ellipse cx="20" cy="673.8516" fill="#84BE84" rx="3" ry="3" style="stroke:#038048;stroke-width:1.0;"/><text fill="#000000" font-family="sans-serif" font-size="14" lengthAdjust="spacing" textLength="421" x="29" y="677.1982">acheterCarteReservee(unsigned int num) : CarteJoaillerie&amp;</text><ellipse cx="20" cy="690.1484" fill="#84BE84" rx="3" ry="3" style="stroke:#038048;stroke-width:1.0;"/><text fill="#000000" font-family="sans-serif" font-size="14" lengthAdjust="spacing" textLength="403" x="29" y="693.4951">reserver_carte(Joueur&amp; joueur, int niv, int colonne) : void</text><ellipse cx="20" cy="706.4453" fill="#84BE84" rx="3" ry="3" style="stroke:#038048;stroke-width:1.0;"/><text fill="#000000" font-family="sans-serif" font-size="14" lengthAdjust="spacing" textLength="1187" x="29" y="709.792">retirer_jetons(const std::array&lt;unsigned int, 2&gt;&amp; coor_jeton1, const std::array&lt;unsigned int, 2&gt;&amp; coor_jeton2, const std::array&lt;unsigned int, 2&gt;&amp; coor_jeton3) : void</text><ellipse cx="20" cy="722.7422" fill="#84BE84" rx="3" ry="3" style="stroke:#038048;stroke-width:1.0;"/><text fill="#000000" font-family="sans-serif" font-size="14" lengthAdjust="spacing" textLength="839" x="29" y="726.0889">retirer_jetons(const std::array&lt;unsigned int, 2&gt;&amp; coor_jeton1, const std::array&lt;unsigned int, 2&gt;&amp; coor_jeton2) : void</text><ellipse cx="20" cy="739.0391" fill="#84BE84" rx="3" ry="3" style="stroke:#038048;stroke-width:1.0;"/><text fill="#000000" font-family="sans-serif" font-size="14" lengthAdjust="spacing" textLength="483" x="29" y="742.3857">retirer_jetons(const std::array&lt;unsigned int, 2&gt;&amp; coor_jeton) : void</text><ellipse cx="20" cy="755.3359" fill="#84BE84" rx="3" ry="3" style="stroke:#038048;stroke-width:1.0;"/><text fill="#000000" font-family="sans-serif" font-size="14" lengthAdjust="spacing" textLength="505" x="29" y="758.6826">retirer_jetons_or(const std::array&lt;unsigned int, 2&gt;&amp; coor_jeton) : void</text><ellipse cx="20" cy="771.6328" fill="#84BE84" rx="3" ry="3" style="stroke:#038048;stroke-width:1.0;"/><text fill="#000000" font-family="sans-serif" font-size="14" lengthAdjust="spacing" textLength="245" x="29" y="774.9795">remettre_jeton(Jeton jeton) : void</text><ellipse cx="20" cy="787.9297" fill="#84BE84" rx="3" ry="3" style="stroke:#038048;stroke-width:1.0;"/><text fill="#000000" font-family="sans-serif" font-size="14" lengthAdjust="spacing" textLength="162" x="29" y="791.2764">ajouter_rejouer() : void</text><ellipse cx="20" cy="804.2266" fill="#84BE84" rx="3" ry="3" style="stroke:#038048;stroke-width:1.0;"/><text fill="#000000" font-family="sans-serif" font-size="14" lengthAdjust="spacing" textLength="477" x="29" y="807.5732">capacite_voler(Joueur&amp; joueur1, Joueur&amp; joueur2, Jeton jeton) : void</text><ellipse cx="20" cy="820.5234" fill="#84BE84" rx="3" ry="3" style="stroke:#038048;stroke-width:1.0;"/><text fill="#000000" font-family="sans-serif" font-size="14" lengthAdjust="spacing" textLength="382" x="29" y="823.8701">recupererCarteRoyale(size_t numero) : CarteRoyale&amp;</text><ellipse cx="20" cy="836.8203" fill="#84BE84" rx="3" ry="3" style="stroke:#038048;stroke-width:1.0;"/><text fill="#000000" font-family="sans-serif" font-size="14" lengthAdjust="spacing" textLength="99" x="29" y="840.167">fin_tour() : int</text><ellipse cx="20" cy="853.1172" fill="#84BE84" rx="3" ry="3" style="stroke:#038048;stroke-width:1.0;"/><text fill="#000000" font-family="sans-serif" font-size="14" lengthAdjust="spacing" textLength="343" x="29" y="856.4639">sauvegarder(const std::string fichier) const : int</text><ellipse cx="20" cy="869.4141" fill="#84BE84" rx="3" ry="3" style="stroke:#038048;stroke-width:1.0;"/><text fill="#000000" font-family="sans-serif" font-size="14" lengthAdjust="spacing" textLength="203" x="29" y="872.7607">getTime() const : std::string</text><ellipse cx="20" cy="885.7109" fill="#84BE84" rx="3" ry="3" style="stroke:#038048;stroke-width:1.0;"/><text fill="#000000" font-family="sans-serif" font-size="14" lengthAdjust="spacing" textLength="327" x="29" y="889.0576">chargerPartie(const std::string chemin) : void</text><ellipse cx="20" cy="902.0078" fill="#84BE84" rx="3" ry="3" style="stroke:#038048;stroke-width:1.0;"/><text fill="#000000" font-family="sans-serif" font-size="14" lengthAdjust="spacing" textLength="303" x="29" y="905.3545">inscrireGagnant(unsigned int joueur) : void</text><ellipse cx="20" cy="918.3047" fill="#84BE84" rx="3" ry="3" style="stroke:#038048;stroke-width:1.0;"/><text fill="#000000" font-family="sans-serif" font-size="14" lengthAdjust="spacing" textLength="416" x="29" y="921.6514">recupererGagnants() : std::map&lt;std::string,unsigned int&gt;</text><ellipse cx="20" cy="934.6016" fill="#84BE84" rx="3" ry="3" style="stroke:#038048;stroke-width:1.0;"/><text fill="#000000" font-family="sans-serif" font-size="14" lengthAdjust="spacing" textLength="115" x="29" y="937.9482">sac_vide() : bool</text><ellipse cx="20" cy="950.8984" fill="#84BE84" rx="3" ry="3" style="stroke:#038048;stroke-width:1.0;"/><text fill="#000000" font-family="sans-serif" font-size="14" lengthAdjust="spacing" textLength="402" x="29" y="954.2451">set_statut_joueur(unsigned int joueur, bool statut) : void</text></g><!--class IA1--><g id="elem_IA1"><rect fill="#F1F1F1" height="48" id="IA1" rx="2.5" ry="2.5" style="stroke:#181818;stroke-width:0.5;" width="55" x="448" y="7"/><ellipse cx="463" cy="23" fill="#ADD1B2" rx="11" ry="11" style="stroke:#181818;stroke-width:1.0;"/><path d="M465.3438,18.6719 C464.4063,18.2344 463.8125,18.0938 462.9375,18.0938 C460.3125,18.0938 458.3125,20.1719 458.3125,22.8906 L458.3125,24.0156 C458.3125,26.5938 460.4219,28.4844 463.3125,28.4844 C464.5313,28.4844 465.6875,28.1875 466.4375,27.6406 C467.0156,27.2344 467.3438,26.7813 467.3438,26.3906 C467.3438,25.9375 466.9531,25.5469 466.4844,25.5469 C466.2656,25.5469 466.0625,25.625 465.875,25.8125 C465.4219,26.2969 465.4219,26.2969 465.2344,26.3906 C464.8125,26.6563 464.125,26.7813 463.3594,26.7813 C461.3125,26.7813 460.0156,25.6875 460.0156,23.9844 L460.0156,22.8906 C460.0156,21.1094 461.2656,19.7969 463,19.7969 C463.5781,19.7969 464.1875,19.9531 464.6563,20.2031 C465.1406,20.4844 465.3125,20.7031 465.4063,21.1094 C465.4688,21.5156 465.5,21.6406 465.6406,21.7656 C465.7813,21.9063 466.0156,22.0156 466.2344,22.0156 C466.5,22.0156 466.7656,21.875 466.9375,21.6563 C467.0469,21.5 467.0781,21.3125 467.0781,20.8906 L467.0781,19.4688 C467.0781,19.0313 467.0625,18.9063 466.9688,18.75 C466.8125,18.4844 466.5313,18.3438 466.2344,18.3438 C465.9375,18.3438 465.7344,18.4375 465.5156,18.75 L465.3438,18.6719 Z " fill="#000000"/><text fill="#000000" font-family="sans-serif" font-size="14" lengthAdjust="spacing" textLength="23" x="477" y="27.8467">IA1</text><line style="stroke:#181818;stroke-width:0.5;" x1="449" x2="502" y1="39" y2="39"/><line style="stroke:#181818;stroke-width:0.5;" x1="449" x2="502" y1="47" y2="47"/></g><!--class InterfaceConsole--><g id="elem_InterfaceConsole"><rect fill="#F1F1F1" height="48" id="InterfaceConsole" rx="2.5" ry="2.5" style="stroke:#181818;stroke-width:0.5;" width="155" x="538" y="7"/><ellipse cx="553" cy="23" fill="#ADD1B2" rx="11" ry="11" style="stroke:#181818;stroke-width:1.0;"/><path d="M555.3438,18.6719 C554.4063,18.2344 553.8125,18.0938 552.9375,18.0938 C550.3125,18.0938 548.3125,20.1719 548.3125,22.8906 L548.3125,24.0156 C548.3125,26.5938 550.4219,28.4844 553.3125,28.4844 C554.5313,28.4844 555.6875,28.1875 556.4375,27.6406 C557.0156,27.2344 557.3438,26.7813 557.3438,26.3906 C557.3438,25.9375 556.9531,25.5469 556.4844,25.5469 C556.2656,25.5469 556.0625,25.625 555.875,25.8125 C555.4219,26.2969 555.4219,26.2969 555.2344,26.3906 C554.8125,26.6563 554.125,26.7813 553.3594,26.7813 C551.3125,26.7813 550.0156,25.6875 550.0156,23.9844 L550.0156,22.8906 C550.0156,21.1094 551.2656,19.7969 553,19.7969 C553.5781,19.7969 554.1875,19.9531 554.6563,20.2031 C555.1406,20.4844 555.3125,20.7031 555.4063,21.1094 C555.4688,21.5156 555.5,21.6406 555.6406,21.7656 C555.7813,21.9063 556.0156,22.0156 556.2344,22.0156 C556.5,22.0156 556.7656,21.875 556.9375,21.6563 C557.0469,21.5 557.0781,21.3125 557.0781,20.8906 L557.0781,19.4688 C557.0781,19.0313 557.0625,18.9063 556.9688,18.75 C556.8125,18.4844 556.5313,18.3438 556.2344,18.3438 C555.9375,18.3438 555.7344,18.4375 555.5156,18.75 L555.3438,18.6719 Z " fill="#000000"/><text fill="#000000" font-family="sans-serif" font-size="14" lengthAdjust="spacing" textLength="123" x="567" y="27.8467">InterfaceConsole</text><line style="stroke:#181818;stroke-width:0.5;" x1="539" x2="692" y1="39" y2="39"/><line style="stroke:#181818;stroke-width:0.5;" x1="539" x2="692" y1="47" y2="47"/></g><!--class InterfaceGraphique--><g id="elem_InterfaceGraphique"><rect fill="#F1F1F1" height="48" id="InterfaceGraphique" rx="2.5" ry="2.5" style="stroke:#181818;stroke-width:0.5;" width="172" x="728.5" y="7"/><ellipse cx="743.5" cy="23" fill="#ADD1B2" rx="11" ry="11" style="stroke:#181818;stroke-width:1.0;"/><path d="M745.8438,18.6719 C744.9063,18.2344 744.3125,18.0938 743.4375,18.0938 C740.8125,18.0938 738.8125,20.1719 738.8125,22.8906 L738.8125,24.0156 C738.8125,26.5938 740.9219,28.4844 743.8125,28.4844 C745.0313,28.4844 746.1875,28.1875 746.9375,27.6406 C747.5156,27.2344 747.8438,26.7813 747.8438,26.3906 C747.8438,25.9375 747.4531,25.5469 746.9844,25.5469 C746.7656,25.5469 746.5625,25.625 746.375,25.8125 C745.9219,26.2969 745.9219,26.2969 745.7344,26.3906 C745.3125,26.6563 744.625,26.7813 743.8594,26.7813 C741.8125,26.7813 740.5156,25.6875 740.5156,23.9844 L740.5156,22.8906 C740.5156,21.1094 741.7656,19.7969 743.5,19.7969 C744.0781,19.7969 744.6875,19.9531 745.1563,20.2031 C745.6406,20.4844 745.8125,20.7031 745.9063,21.1094 C745.9688,21.5156 746,21.6406 746.1406,21.7656 C746.2813,21.9063 746.5156,22.0156 746.7344,22.0156 C747,22.0156 747.2656,21.875 747.4375,21.6563 C747.5469,21.5 747.5781,21.3125 747.5781,20.8906 L747.5781,19.4688 C747.5781,19.0313 747.5625,18.9063 747.4688,18.75 C747.3125,18.4844 747.0313,18.3438 746.7344,18.3438 C746.4375,18.3438 746.2344,18.4375 746.0156,18.75 L745.8438,18.6719 Z " fill="#000000"/><text fill="#000000" font-family="sans-serif" font-size="14" lengthAdjust="spacing" textLength="140" x="757.5" y="27.8467">InterfaceGraphique</text><line style="stroke:#181818;stroke-width:0.5;" x1="729.5" x2="899.5" y1="39" y2="39"/><line style="stroke:#181818;stroke-width:0.5;" x1="729.5" x2="899.5" y1="47" y2="47"/></g><!--class Plateau--><g id="elem_Plateau"><rect fill="#F1F1F1" height="48" id="Plateau" rx="2.5" ry="2.5" style="stroke:#181818;stroke-width:0.5;" width="85" x="293" y="1022"/><ellipse cx="308" cy="1038" fill="#ADD1B2" rx="11" ry="11" style="stroke:#181818;stroke-width:1.0;"/><path d="M310.3438,1033.6719 C309.4063,1033.2344 308.8125,1033.0938 307.9375,1033.0938 C305.3125,1033.0938 303.3125,1035.1719 303.3125,1037.8906 L303.3125,1039.0156 C303.3125,1041.5938 305.4219,1043.4844 308.3125,1043.4844 C309.5313,1043.4844 310.6875,1043.1875 311.4375,1042.6406 C312.0156,1042.2344 312.3438,1041.7813 312.3438,1041.3906 C312.3438,1040.9375 311.9531,1040.5469 311.4844,1040.5469 C311.2656,1040.5469 311.0625,1040.625 310.875,1040.8125 C310.4219,1041.2969 310.4219,1041.2969 310.2344,1041.3906 C309.8125,1041.6563 309.125,1041.7813 308.3594,1041.7813 C306.3125,1041.7813 305.0156,1040.6875 305.0156,1038.9844 L305.0156,1037.8906 C305.0156,1036.1094 306.2656,1034.7969 308,1034.7969 C308.5781,1034.7969 309.1875,1034.9531 309.6563,1035.2031 C310.1406,1035.4844 310.3125,1035.7031 310.4063,1036.1094 C310.4688,1036.5156 310.5,1036.6406 310.6406,1036.7656 C310.7813,1036.9063 311.0156,1037.0156 311.2344,1037.0156 C311.5,1037.0156 311.7656,1036.875 311.9375,1036.6563 C312.0469,1036.5 312.0781,1036.3125 312.0781,1035.8906 L312.0781,1034.4688 C312.0781,1034.0313 312.0625,1033.9063 311.9688,1033.75 C311.8125,1033.4844 311.5313,1033.3438 311.2344,1033.3438 C310.9375,1033.3438 310.7344,1033.4375 310.5156,1033.75 L310.3438,1033.6719 Z " fill="#000000"/><text fill="#000000" font-family="sans-serif" font-size="14" lengthAdjust="spacing" textLength="53" x="322" y="1042.8467">Plateau</text><line style="stroke:#181818;stroke-width:0.5;" x1="294" x2="377" y1="1054" y2="1054"/><line style="stroke:#181818;stroke-width:0.5;" x1="294" x2="377" y1="1062" y2="1062"/></g><!--class Sac--><g id="elem_Sac"><rect fill="#F1F1F1" height="48" id="Sac" rx="2.5" ry="2.5" style="stroke:#181818;stroke-width:0.5;" width="57" x="413" y="1022"/><ellipse cx="428" cy="1038" fill="#ADD1B2" rx="11" ry="11" style="stroke:#181818;stroke-width:1.0;"/><path d="M430.3438,1033.6719 C429.4063,1033.2344 428.8125,1033.0938 427.9375,1033.0938 C425.3125,1033.0938 423.3125,1035.1719 423.3125,1037.8906 L423.3125,1039.0156 C423.3125,1041.5938 425.4219,1043.4844 428.3125,1043.4844 C429.5313,1043.4844 430.6875,1043.1875 431.4375,1042.6406 C432.0156,1042.2344 432.3438,1041.7813 432.3438,1041.3906 C432.3438,1040.9375 431.9531,1040.5469 431.4844,1040.5469 C431.2656,1040.5469 431.0625,1040.625 430.875,1040.8125 C430.4219,1041.2969 430.4219,1041.2969 430.2344,1041.3906 C429.8125,1041.6563 429.125,1041.7813 428.3594,1041.7813 C426.3125,1041.7813 425.0156,1040.6875 425.0156,1038.9844 L425.0156,1037.8906 C425.0156,1036.1094 426.2656,1034.7969 428,1034.7969 C428.5781,1034.7969 429.1875,1034.9531 429.6563,1035.2031 C430.1406,1035.4844 430.3125,1035.7031 430.4063,1036.1094 C430.4688,1036.5156 430.5,1036.6406 430.6406,1036.7656 C430.7813,1036.9063 431.0156,1037.0156 431.2344,1037.0156 C431.5,1037.0156 431.7656,1036.875 431.9375,1036.6563 C432.0469,1036.5 432.0781,1036.3125 432.0781,1035.8906 L432.0781,1034.4688 C432.0781,1034.0313 432.0625,1033.9063 431.9688,1033.75 C431.8125,1033.4844 431.5313,1033.3438 431.2344,1033.3438 C430.9375,1033.3438 430.7344,1033.4375 430.5156,1033.75 L430.3438,1033.6719 Z " fill="#000000"/><text fill="#000000" font-family="sans-serif" font-size="14" lengthAdjust="spacing" textLength="25" x="442" y="1042.8467">Sac</text><line style="stroke:#181818;stroke-width:0.5;" x1="414" x2="469" y1="1054" y2="1054"/><line style="stroke:#181818;stroke-width:0.5;" x1="414" x2="469" y1="1062" y2="1062"/></g><!--class Pyramide--><g id="elem_Pyramide"><rect fill="#F1F1F1" height="48" id="Pyramide" rx="2.5" ry="2.5" style="stroke:#181818;stroke-width:0.5;" width="99" x="505" y="1022"/><ellipse cx="520" cy="1038" fill="#ADD1B2" rx="11" ry="11" style="stroke:#181818;stroke-width:1.0;"/><path d="M522.3438,1033.6719 C521.4063,1033.2344 520.8125,1033.0938 519.9375,1033.0938 C517.3125,1033.0938 515.3125,1035.1719 515.3125,1037.8906 L515.3125,1039.0156 C515.3125,1041.5938 517.4219,1043.4844 520.3125,1043.4844 C521.5313,1043.4844 522.6875,1043.1875 523.4375,1042.6406 C524.0156,1042.2344 524.3438,1041.7813 524.3438,1041.3906 C524.3438,1040.9375 523.9531,1040.5469 523.4844,1040.5469 C523.2656,1040.5469 523.0625,1040.625 522.875,1040.8125 C522.4219,1041.2969 522.4219,1041.2969 522.2344,1041.3906 C521.8125,1041.6563 521.125,1041.7813 520.3594,1041.7813 C518.3125,1041.7813 517.0156,1040.6875 517.0156,1038.9844 L517.0156,1037.8906 C517.0156,1036.1094 518.2656,1034.7969 520,1034.7969 C520.5781,1034.7969 521.1875,1034.9531 521.6563,1035.2031 C522.1406,1035.4844 522.3125,1035.7031 522.4063,1036.1094 C522.4688,1036.5156 522.5,1036.6406 522.6406,1036.7656 C522.7813,1036.9063 523.0156,1037.0156 523.2344,1037.0156 C523.5,1037.0156 523.7656,1036.875 523.9375,1036.6563 C524.0469,1036.5 524.0781,1036.3125 524.0781,1035.8906 L524.0781,1034.4688 C524.0781,1034.0313 524.0625,1033.9063 523.9688,1033.75 C523.8125,1033.4844 523.5313,1033.3438 523.2344,1033.3438 C522.9375,1033.3438 522.7344,1033.4375 522.5156,1033.75 L522.3438,1033.6719 Z " fill="#000000"/><text fill="#000000" font-family="sans-serif" font-size="14" lengthAdjust="spacing" textLength="67" x="534" y="1042.8467">Pyramide</text><line style="stroke:#181818;stroke-width:0.5;" x1="506" x2="603" y1="1054" y2="1054"/><line style="stroke:#181818;stroke-width:0.5;" x1="506" x2="603" y1="1062" y2="1062"/></g><!--class Joueur--><g id="elem_Joueur"><rect fill="#F1F1F1" height="48" id="Joueur" rx="2.5" ry="2.5" style="stroke:#181818;stroke-width:0.5;" width="76" x="639.5" y="1022"/><ellipse cx="654.5" cy="1038" fill="#ADD1B2" rx="11" ry="11" style="stroke:#181818;stroke-width:1.0;"/><path d="M656.8438,1033.6719 C655.9063,1033.2344 655.3125,1033.0938 654.4375,1033.0938 C651.8125,1033.0938 649.8125,1035.1719 649.8125,1037.8906 L649.8125,1039.0156 C649.8125,1041.5938 651.9219,1043.4844 654.8125,1043.4844 C656.0313,1043.4844 657.1875,1043.1875 657.9375,1042.6406 C658.5156,1042.2344 658.8438,1041.7813 658.8438,1041.3906 C658.8438,1040.9375 658.4531,1040.5469 657.9844,1040.5469 C657.7656,1040.5469 657.5625,1040.625 657.375,1040.8125 C656.9219,1041.2969 656.9219,1041.2969 656.7344,1041.3906 C656.3125,1041.6563 655.625,1041.7813 654.8594,1041.7813 C652.8125,1041.7813 651.5156,1040.6875 651.5156,1038.9844 L651.5156,1037.8906 C651.5156,1036.1094 652.7656,1034.7969 654.5,1034.7969 C655.0781,1034.7969 655.6875,1034.9531 656.1563,1035.2031 C656.6406,1035.4844 656.8125,1035.7031 656.9063,1036.1094 C656.9688,1036.5156 657,1036.6406 657.1406,1036.7656 C657.2813,1036.9063 657.5156,1037.0156 657.7344,1037.0156 C658,1037.0156 658.2656,1036.875 658.4375,1036.6563 C658.5469,1036.5 658.5781,1036.3125 658.5781,1035.8906 L658.5781,1034.4688 C658.5781,1034.0313 658.5625,1033.9063 658.4688,1033.75 C658.3125,1033.4844 658.0313,1033.3438 657.7344,1033.3438 C657.4375,1033.3438 657.2344,1033.4375 657.0156,1033.75 L656.8438,1033.6719 Z " fill="#000000"/><text fill="#000000" font-family="sans-serif" font-size="14" lengthAdjust="spacing" textLength="44" x="668.5" y="1042.8467">Joueur</text><line style="stroke:#181818;stroke-width:0.5;" x1="640.5" x2="714.5" y1="1054" y2="1054"/><line style="stroke:#181818;stroke-width:0.5;" x1="640.5" x2="714.5" y1="1062" y2="1062"/></g><!--class CarteRoyale--><g id="elem_CarteRoyale"><rect fill="#F1F1F1" height="48" id="CarteRoyale" rx="2.5" ry="2.5" style="stroke:#181818;stroke-width:0.5;" width="120" x="750.5" y="1022"/><ellipse cx="765.5" cy="1038" fill="#ADD1B2" rx="11" ry="11" style="stroke:#181818;stroke-width:1.0;"/><path d="M767.8438,1033.6719 C766.9063,1033.2344 766.3125,1033.0938 765.4375,1033.0938 C762.8125,1033.0938 760.8125,1035.1719 760.8125,1037.8906 L760.8125,1039.0156 C760.8125,1041.5938 762.9219,1043.4844 765.8125,1043.4844 C767.0313,1043.4844 768.1875,1043.1875 768.9375,1042.6406 C769.5156,1042.2344 769.8438,1041.7813 769.8438,1041.3906 C769.8438,1040.9375 769.4531,1040.5469 768.9844,1040.5469 C768.7656,1040.5469 768.5625,1040.625 768.375,1040.8125 C767.9219,1041.2969 767.9219,1041.2969 767.7344,1041.3906 C767.3125,1041.6563 766.625,1041.7813 765.8594,1041.7813 C763.8125,1041.7813 762.5156,1040.6875 762.5156,1038.9844 L762.5156,1037.8906 C762.5156,1036.1094 763.7656,1034.7969 765.5,1034.7969 C766.0781,1034.7969 766.6875,1034.9531 767.1563,1035.2031 C767.6406,1035.4844 767.8125,1035.7031 767.9063,1036.1094 C767.9688,1036.5156 768,1036.6406 768.1406,1036.7656 C768.2813,1036.9063 768.5156,1037.0156 768.7344,1037.0156 C769,1037.0156 769.2656,1036.875 769.4375,1036.6563 C769.5469,1036.5 769.5781,1036.3125 769.5781,1035.8906 L769.5781,1034.4688 C769.5781,1034.0313 769.5625,1033.9063 769.4688,1033.75 C769.3125,1033.4844 769.0313,1033.3438 768.7344,1033.3438 C768.4375,1033.3438 768.2344,1033.4375 768.0156,1033.75 L767.8438,1033.6719 Z " fill="#000000"/><text fill="#000000" font-family="sans-serif" font-size="14" lengthAdjust="spacing" textLength="88" x="779.5" y="1042.8467">CarteRoyale</text><line style="stroke:#181818;stroke-width:0.5;" x1="751.5" x2="869.5" y1="1054" y2="1054"/><line style="stroke:#181818;stroke-width:0.5;" x1="751.5" x2="869.5" y1="1062" y2="1062"/></g><!--class CarteJoaillerie--><g id="elem_CarteJoaillerie"><rect fill="#F1F1F1" height="48" id="CarteJoaillerie" rx="2.5" ry="2.5" style="stroke:#181818;stroke-width:0.5;" width="133" x="906" y="1022"/><ellipse cx="921" cy="1038" fill="#ADD1B2" rx="11" ry="11" style="stroke:#181818;stroke-width:1.0;"/><path d="M923.3438,1033.6719 C922.4063,1033.2344 921.8125,1033.0938 920.9375,1033.0938 C918.3125,1033.0938 916.3125,1035.1719 916.3125,1037.8906 L916.3125,1039.0156 C916.3125,1041.5938 918.4219,1043.4844 921.3125,1043.4844 C922.5313,1043.4844 923.6875,1043.1875 924.4375,1042.6406 C925.0156,1042.2344 925.3438,1041.7813 925.3438,1041.3906 C925.3438,1040.9375 924.9531,1040.5469 924.4844,1040.5469 C924.2656,1040.5469 924.0625,1040.625 923.875,1040.8125 C923.4219,1041.2969 923.4219,1041.2969 923.2344,1041.3906 C922.8125,1041.6563 922.125,1041.7813 921.3594,1041.7813 C919.3125,1041.7813 918.0156,1040.6875 918.0156,1038.9844 L918.0156,1037.8906 C918.0156,1036.1094 919.2656,1034.7969 921,1034.7969 C921.5781,1034.7969 922.1875,1034.9531 922.6563,1035.2031 C923.1406,1035.4844 923.3125,1035.7031 923.4063,1036.1094 C923.4688,1036.5156 923.5,1036.6406 923.6406,1036.7656 C923.7813,1036.9063 924.0156,1037.0156 924.2344,1037.0156 C924.5,1037.0156 924.7656,1036.875 924.9375,1036.6563 C925.0469,1036.5 925.0781,1036.3125 925.0781,1035.8906 L925.0781,1034.4688 C925.0781,1034.0313 925.0625,1033.9063 924.9688,1033.75 C924.8125,1033.4844 924.5313,1033.3438 924.2344,1033.3438 C923.9375,1033.3438 923.7344,1033.4375 923.5156,1033.75 L923.3438,1033.6719 Z " fill="#000000"/><text fill="#000000" font-family="sans-serif" font-size="14" lengthAdjust="spacing" textLength="101" x="935" y="1042.8467">CarteJoaillerie</text><line style="stroke:#181818;stroke-width:0.5;" x1="907" x2="1038" y1="1054" y2="1054"/><line style="stroke:#181818;stroke-width:0.5;" x1="907" x2="1038" y1="1062" y2="1062"/></g><!--reverse link IA1 to Partie--><g id="link_IA1_Partie"><path codeLine="56" d="M485.0811,66.5949 C489.0931,81.0849 491.595,90.114 498.409,114.717 " fill="none" id="IA1-backto-Partie" style="stroke:#181818;stroke-width:1.0;"/><polygon fill="#181818" points="481.879,55.03,479.6251,61.8798,485.0811,66.5949,487.335,59.7451,481.879,55.03" style="stroke:#181818;stroke-width:1.0;"/></g><!--reverse link InterfaceConsole to Partie--><g id="link_InterfaceConsole_Partie"><path codeLine="57" d="M615.5,67.03 C615.5,81.52 615.5,90.114 615.5,114.717 " fill="none" id="InterfaceConsole-backto-Partie" style="stroke:#181818;stroke-width:1.0;"/><polygon fill="none" points="615.5,55.03,611.5,61.03,615.5,67.03,619.5,61.03,615.5,55.03" style="stroke:#181818;stroke-width:1.0;"/></g><!--reverse link InterfaceGraphique to Partie--><g id="link_InterfaceGraphique_Partie"><path codeLine="58" d="M801.0378,66.1965 C795.3358,80.6865 791.622,90.114 781.937,114.717 " fill="none" id="InterfaceGraphique-backto-Partie" style="stroke:#181818;stroke-width:1.0;"/><polygon fill="none" points="805.432,55.03,799.5127,59.1485,801.0378,66.1965,806.9571,62.078,805.432,55.03" style="stroke:#181818;stroke-width:1.0;"/></g><!--reverse link Partie to Plateau--><g id="link_Partie_Plateau"><path codeLine="59" d="M375.6085,972.5902 C361.9895,997.1775 356.395,1007.2766 348.356,1021.7905 " fill="none" id="Partie-backto-Plateau" style="stroke:#181818;stroke-width:1.0;"/><polygon fill="#181818" points="381.423,962.093,375.0167,965.4035,375.6085,972.5902,382.0148,969.2798,381.423,962.093" style="stroke:#181818;stroke-width:1.0;"/></g><!--reverse link Partie to Sac--><g id="link_Partie_Sac"><path codeLine="60" d="M466.132,973.4395 C457.668,998.0268 454.485,1007.2766 449.489,1021.7905 " fill="none" id="Partie-backto-Sac" style="stroke:#181818;stroke-width:1.0;"/><polygon fill="#181818" points="470.038,962.093,464.3028,966.4643,466.132,973.4395,471.8672,969.0682,470.038,962.093" style="stroke:#181818;stroke-width:1.0;"/></g><!--reverse link Partie to Pyramide--><g id="link_Partie_Pyramide"><path codeLine="61" d="M563.0674,974.0066 C560.1004,998.5939 559.052,1007.2766 557.301,1021.7905 " fill="none" id="Partie-backto-Pyramide" style="stroke:#181818;stroke-width:1.0;"/><polygon fill="#181818" points="564.505,962.093,559.815,967.5706,563.0674,974.0066,567.7574,968.529,564.505,962.093" style="stroke:#181818;stroke-width:1.0;"/></g><!--reverse link Partie to Joueur--><g id="link_Partie_Joueur"><path codeLine="62" d="M668.792,974.0037 C671.808,998.591 672.873,1007.2766 674.653,1021.7905 " fill="none" id="Partie-backto-Joueur" style="stroke:#181818;stroke-width:1.0;"/><polygon fill="none" points="667.331,962.093,664.0913,968.5354,668.792,974.0037,672.0318,967.5614,667.331,962.093" style="stroke:#181818;stroke-width:1.0;"/></g><!--reverse link Partie to CarteRoyale--><g id="link_Partie_CarteRoyale"><path codeLine="63" d="M782.837,973.2888 C792.322,997.8761 795.948,1007.2766 801.547,1021.7905 " fill="none" id="Partie-backto-CarteRoyale" style="stroke:#181818;stroke-width:1.0;"/><polygon fill="none" points="778.518,962.093,776.9456,969.1306,782.837,973.2888,784.4094,966.2512,778.518,962.093" style="stroke:#181818;stroke-width:1.0;"/></g><!--reverse link Partie to CarteJoaillerie--><g id="link_Partie_CarteJoaillerie"><path codeLine="64" d="M920.8707,971.8949 C938.2357,996.4822 945.859,1007.2766 956.109,1021.7905 " fill="none" id="Partie-backto-CarteJoaillerie" style="stroke:#181818;stroke-width:1.0;"/><polygon fill="none" points="913.948,962.093,914.142,969.3015,920.8707,971.8949,920.6766,964.6864,913.948,962.093" style="stroke:#181818;stroke-width:1.0;"/></g><!--SRC=[nLPHQzim47xFhn0CGjgaiBPlfGcCFfJsgMnxDwfyIQueadUIpRgG_VQTR3cnNDTGDbWU7FdqtQVJtUcJbPREYIT97c6odmZ-pSNUUUbH7SG6V5RKSxCpSHDXvoCev_ER6-S9pKQu4PSSD7ZeSbSMymPMFpwTi0sentKX5B-1OtEzPWNAMxgz2yP7Ar5h88HLn1PQUf1bu6X6BOcJYetVf9gso5UIEyphvUAmnRxO4agw58_rVsAyIetUbYIMuZEJbCRXna0kqFWayA_sLUhX-9kfO-o45MhOWCjoT8Kr-1pybk9wc1xMQwu7GOXi98gGtT9dxQQMOYsr2zj-jbOFOQw6CB5MJuFLtyFFGgD2VqXXP-chiiRv-39jv_OLaY-bFeZVFIzR04dErRBd67le5DPSQ2J8rgYs21JHQYlfN4HRy6apCkSH-Zh_RfQGpMEHCwayhdckOHh8wWcPLq0Enh45WScpOtbdJGjD8yTPH9KUDJfu5xT8g7azROs1dbM7OMzJ13kk3cNnRFINxpLcFPP4ylMsoxmGLwjLZr19rnpf4P_e8jMMPI2uSDhVR2n4Rh1QT3SMU7k7V9gIDKS87505C4lIOChTY3yrFX-D9acfvuwZx0Kybprst4WMfinZ8_no8Jw4l_eW_lf_nleFrnwboYpz9TiEl6VHg2TdZ-4fXe2Iko8qRfJPlc0eMKZMFSWgootMQoNENchWKhw_4e4gMV7QlgwlXfd3Nv3L_GnaZotTJBRjl4QJXOjebggSasK56qav9AcAgdqKnbQtJevyot_7NLVJEexjlbbTDq29i7Vf-OJkiBz3D4uH5_5URemqFZso9pKQoabqSIUvsSdYjhFYeaksEgP0PHLVxBNNyIfZEz-RoPKt5CgYzeXNOnkNc1mcauSlb-ByugBzc7emt21hgU2Eqy1j8Ep0t3t9Oei_ocIs-Mku6d7kclXZ9K74hvJM5dZYnqZ7qkcFD-QJ4lu1]--></g></svg>